<?xml version="1.0" standalone="no"?>
<!DOCTYPE svg PUBLIC "-//W3C//DTD SVG 20010904//EN"
 "http://www.w3.org/TR/2001/REC-SVG-20010904/DTD/svg10.dtd">
<svg version="1.0" xmlns="http://www.w3.org/2000/svg"
 width="160.000000pt" height="160.000000pt" viewBox="0 0 160.000000 160.000000"
 preserveAspectRatio="xMidYMid meet">
<metadata>
Created by potrace 1.14, written by Peter Selinger 2001-2017
</metadata>
<g transform="translate(0.000000,160.000000) scale(0.100000,-0.100000)"
fill="#000000" stroke="none">
<path d="M1557 1574 c-27 -15 -32 -42 -7 -36 8 2 10 -3 7 -13 -4 -8 -2 -15 4
-15 5 0 8 12 6 28 -2 16 2 32 12 39 22 17 12 15 -22 -3z m3 -18 c0 -3 -4 -8
-10 -11 -5 -3 -10 -1 -10 4 0 6 5 11 10 11 6 0 10 -2 10 -4z"/>
<path d="M1496 1555 c7 -18 6 -19 -12 -5 -17 14 -18 13 -7 -1 7 -9 11 -19 8
-23 -3 -3 3 1 12 9 14 12 15 17 4 27 -10 11 -11 9 -5 -7z"/>
<path d="M1420 1538 c0 -5 9 -7 20 -3 15 5 18 3 14 -9 -3 -8 -13 -17 -22 -19
-15 -4 -15 -5 0 -6 14 -1 46 36 36 40 -14 7 -48 4 -48 -3z"/>
<path d="M1337 1515 c-8 -18 6 -27 30 -19 12 4 8 -3 -11 -19 l-28 -25 22 -22
c15 -15 25 -19 32 -12 12 12 2 32 -15 32 -7 0 -6 -4 3 -10 8 -5 12 -12 8 -15
-3 -3 -13 2 -23 11 -16 16 -16 18 2 27 37 21 39 53 2 42 -14 -5 -17 -3 -13 9
3 9 4 16 1 16 -3 0 -7 -7 -10 -15z"/>
<path d="M1390 1520 c0 -5 5 -10 10 -10 6 0 10 5 10 10 0 6 -4 10 -10 10 -5 0
-10 -4 -10 -10z"/>
<path d="M1505 1520 c-3 -5 -2 -10 4 -10 5 0 13 5 16 10 3 6 2 10 -4 10 -5 0
-13 -4 -16 -10z"/>
<path d="M1306 1513 c-4 -5 -13 -8 -19 -8 -6 0 -16 -10 -22 -22 -8 -16 -15
-19 -23 -13 -8 7 -9 7 -3 -1 5 -6 7 -18 4 -25 -3 -8 0 -14 6 -14 6 0 10 3 9 8
-1 4 5 21 12 37 l13 30 7 -25 c8 -25 8 -25 9 -2 1 14 5 20 12 17 6 -4 8 -14 4
-24 -5 -12 -4 -13 6 -4 9 9 9 16 1 26 -7 8 -9 17 -5 20 3 4 4 7 1 7 -2 0 -8
-3 -12 -7z"/>
<path d="M1470 1499 c0 -5 5 -7 11 -3 8 4 9 -1 5 -17 -3 -13 -3 -18 0 -11 3 6
10 9 16 6 6 -4 5 2 -1 15 -12 22 -31 29 -31 10z"/>
<path d="M1530 1503 c0 -5 7 -18 15 -29 13 -18 14 -18 8 4 -5 22 -23 41 -23
25z"/>
<path d="M1228 1493 c7 -3 16 -2 19 1 4 3 -2 6 -13 5 -11 0 -14 -3 -6 -6z"/>
<path d="M1406 1483 c2 -7 -1 -13 -6 -13 -6 0 -10 -4 -10 -10 0 -17 14 -11 28
11 8 12 9 18 4 15 -6 -3 -12 -3 -15 1 -2 5 -2 2 -1 -4z"/>
<path d="M1139 1463 c-13 -17 -13 -17 5 -3 18 14 19 13 12 -5 -6 -16 -5 -18 5
-7 9 8 10 15 3 22 -8 8 -15 5 -25 -7z"/>
<path d="M1195 1467 c26 -15 28 -45 4 -52 -17 -6 -17 -7 2 -26 24 -24 38 -25
15 0 -14 15 -14 20 -3 24 29 11 5 67 -28 66 -5 0 -1 -5 10 -12z"/>
<path d="M1508 1460 c-21 -19 -23 -30 -6 -30 6 0 8 3 5 7 -4 3 1 12 11 19 9 7
15 14 12 17 -3 2 -13 -3 -22 -13z"/>
<path d="M1436 1459 c2 -4 -1 -9 -8 -11 -7 -3 -4 -7 7 -12 11 -4 16 -4 12 0
-4 4 1 13 11 20 16 12 15 13 -5 11 -12 0 -20 -4 -17 -8z"/>
<path d="M1094 1452 c5 -7 -1 -16 -16 -21 -13 -6 -16 -10 -8 -10 8 0 22 4 30
9 13 8 13 11 1 22 -11 10 -12 10 -7 0z"/>
<path d="M1180 1440 c0 -5 5 -10 10 -10 6 0 10 5 10 10 0 6 -4 10 -10 10 -5 0
-10 -4 -10 -10z"/>
<path d="M1270 1438 c0 -6 3 -8 7 -5 3 4 12 -1 20 -11 14 -16 14 -16 9 1 -6
18 9 24 17 7 3 -6 4 -5 3 2 -3 16 -56 21 -56 6z"/>
<path d="M1530 1441 c0 -6 4 -12 8 -15 5 -3 9 1 9 9 0 8 -4 15 -9 15 -4 0 -8
-4 -8 -9z"/>
<path d="M1027 1428 c-18 -14 -8 -46 11 -34 8 5 14 46 7 46 -1 0 -9 -6 -18
-12z m13 -18 c0 -5 -2 -10 -4 -10 -3 0 -8 5 -11 10 -3 6 -1 10 4 10 6 0 11 -4
11 -10z"/>
<path d="M1139 1409 c-6 -13 -7 -19 -1 -15 6 3 13 0 16 -6 3 -7 3 -2 0 11 -4
16 -3 21 5 17 6 -4 11 -2 11 3 0 19 -19 12 -31 -10z"/>
<path d="M1400 1410 c-13 -10 -29 -16 -35 -12 -5 3 -4 -2 4 -11 7 -9 17 -17
22 -17 5 0 20 -10 34 -22 20 -17 22 -24 12 -36 -10 -13 -9 -14 9 -2 21 13 21
13 -9 41 -17 16 -36 29 -44 29 -8 0 -11 5 -8 11 4 6 14 8 22 5 8 -3 12 -2 8 3
-3 5 1 11 7 14 7 2 11 7 8 10 -3 3 -16 -3 -30 -13z"/>
<path d="M1456 1421 c-3 -5 1 -14 9 -21 8 -7 15 -9 15 -4 0 4 7 -1 15 -12 20
-26 19 -9 -1 21 -17 26 -29 31 -38 16z m24 -11 c0 -5 -2 -10 -4 -10 -3 0 -8 5
-11 10 -3 6 -1 10 4 10 6 0 11 -4 11 -10z"/>
<path d="M990 1409 c0 -5 -5 -7 -11 -3 -8 4 -8 0 0 -15 12 -22 31 -29 31 -10
0 5 -5 7 -11 3 -8 -4 -9 0 -4 15 3 11 4 21 1 21 -3 0 -6 -5 -6 -11z"/>
<path d="M1110 1409 c0 -5 5 -7 10 -4 6 3 10 8 10 11 0 2 -4 4 -10 4 -5 0 -10
-5 -10 -11z"/>
<path d="M1234 1409 c-3 -6 -2 -15 3 -20 5 -5 9 -1 9 11 0 23 -2 24 -12 9z"/>
<path d="M1261 1410 c0 -8 4 -22 9 -30 5 -8 10 -10 10 -5 0 6 5 2 11 -7 5 -10
15 -18 21 -18 6 0 0 10 -14 23 -14 13 -28 30 -31 38 -5 12 -6 12 -6 -1z"/>
<path d="M1510 1410 c0 -5 5 -10 10 -10 6 0 10 5 10 10 0 6 -4 10 -10 10 -5 0
-10 -4 -10 -10z"/>
<path d="M900 1403 c0 -14 39 -38 47 -29 3 3 -3 9 -13 13 -10 3 -22 11 -26 17
-5 8 -8 7 -8 -1z"/>
<path d="M950 1401 c0 -6 4 -13 10 -16 6 -3 7 1 4 9 -7 18 -14 21 -14 7z"/>
<path d="M1070 1396 c7 -7 13 -7 20 0 6 6 3 10 -10 10 -13 0 -16 -4 -10 -10z"/>
<path d="M1336 1399 c4 -8 -1 -9 -17 -5 -13 3 -18 3 -11 0 6 -3 9 -10 6 -16
-4 -6 2 -5 15 1 22 12 29 31 10 31 -5 0 -7 -5 -3 -11z"/>
<path d="M1433 1388 c2 -7 10 -12 17 -10 8 2 10 -3 6 -13 -3 -9 -2 -14 3 -10
5 3 11 0 13 -7 3 -7 7 -4 12 7 4 11 4 16 0 12 -4 -4 -13 2 -21 13 -16 22 -37
27 -30 8z"/>
<path d="M870 1380 c0 -5 5 -10 10 -10 6 0 10 5 10 10 0 6 -4 10 -10 10 -5 0
-10 -4 -10 -10z"/>
<path d="M1025 1369 c-16 -11 -25 -19 -20 -19 6 0 21 7 34 16 22 16 23 16 17
-3 -4 -13 0 -25 11 -34 9 -8 14 -9 10 -3 -4 7 0 15 9 18 8 3 12 10 9 16 -3 5
-1 10 4 10 6 0 11 5 11 11 0 8 -5 8 -15 -1 -8 -7 -13 -16 -10 -20 3 -4 -2 -11
-11 -14 -12 -4 -14 -1 -9 13 8 28 -6 31 -40 10z"/>
<path d="M1175 1380 c3 -5 11 -10 16 -10 6 0 7 5 4 10 -3 6 -11 10 -16 10 -6
0 -7 -4 -4 -10z"/>
<path d="M1351 1375 c0 -13 28 -50 33 -44 3 2 -4 15 -14 29 -11 14 -20 21 -19
15z"/>
<path d="M729 1363 c-1 -5 -1 -12 0 -17 1 -5 -5 -6 -14 -2 -10 3 -14 2 -10 -5
4 -6 14 -8 22 -5 11 5 13 2 9 -9 -3 -9 -2 -13 4 -10 6 3 10 1 10 -6 0 -7 3
-10 6 -7 3 4 0 17 -7 30 -7 12 -12 26 -11 31 1 4 0 7 -3 7 -3 0 -6 -3 -6 -7z"/>
<path d="M755 1360 c-2 -3 0 -11 4 -18 5 -8 10 -6 18 7 9 14 8 18 -3 18 -8 0
-17 -3 -19 -7z"/>
<path d="M826 1358 c3 -5 9 -6 14 -3 4 3 11 -2 14 -11 5 -14 9 -13 36 2 16 10
28 20 26 22 -3 2 -16 -4 -30 -13 -23 -15 -26 -15 -26 -2 0 9 -8 15 -19 14 -11
0 -17 -5 -15 -9z"/>
<path d="M950 1360 c-8 -5 -10 -10 -5 -10 6 0 17 5 25 10 8 5 11 10 5 10 -5 0
-17 -5 -25 -10z"/>
<path d="M1248 1363 c6 -2 12 -9 12 -14 0 -6 -3 -8 -8 -5 -11 7 -47 -23 -37
-31 4 -5 10 -2 12 5 3 6 8 10 13 7 11 -7 33 22 25 35 -3 5 -12 10 -18 9 -9 0
-9 -2 1 -6z"/>
<path d="M1506 1355 c-11 -8 -17 -17 -14 -20 2 -3 13 4 23 15 21 23 18 25 -9
5z"/>
<path d="M1110 1355 c0 -5 5 -17 10 -25 5 -8 10 -10 10 -5 0 6 -5 17 -10 25
-5 8 -10 11 -10 5z"/>
<path d="M1137 1348 c2 -5 13 -8 23 -8 10 0 21 3 23 8 3 4 -8 7 -23 7 -15 0
-26 -3 -23 -7z"/>
<path d="M1196 1345 c-9 -26 -7 -32 5 -12 6 10 9 21 6 23 -2 3 -7 -2 -11 -11z"/>
<path d="M675 1341 c-3 -6 -2 -11 4 -11 6 0 9 -6 7 -12 -1 -7 -1 -10 1 -5 3 4
10 4 16 0 7 -4 5 2 -3 13 -8 10 -15 20 -16 22 -1 2 -5 -1 -9 -7z"/>
<path d="M810 1341 c0 -6 5 -11 11 -11 5 0 7 -4 4 -10 -3 -5 0 -7 8 -4 8 3 18
1 21 -4 3 -6 -5 -13 -19 -16 -24 -6 -36 -26 -15 -26 6 0 10 5 10 10 0 6 5 10
11 10 6 0 22 9 36 20 14 11 21 20 15 20 -6 0 -14 -5 -17 -10 -4 -6 -18 -2 -36
10 -16 12 -29 17 -29 11z"/>
<path d="M910 1339 c0 -5 5 -7 11 -3 8 4 9 -1 5 -17 -3 -13 -3 -18 0 -11 3 6
10 9 16 6 6 -4 5 2 -1 15 -12 22 -31 29 -31 10z"/>
<path d="M990 1321 c12 -18 16 -32 10 -36 -5 -3 -10 -11 -10 -17 0 -6 9 1 21
16 17 21 19 30 9 41 -7 8 -16 12 -21 9 -5 -3 -9 0 -9 5 0 6 -5 11 -11 11 -6 0
-1 -13 11 -29z m30 -12 c0 -6 -4 -7 -10 -4 -5 3 -10 11 -10 16 0 6 5 7 10 4 6
-3 10 -11 10 -16z"/>
<path d="M1030 1345 c0 -5 5 -17 10 -25 5 -8 10 -10 10 -5 0 6 -5 17 -10 25
-5 8 -10 11 -10 5z"/>
<path d="M1276 1335 c-9 -26 -7 -32 5 -12 6 10 9 21 6 23 -2 3 -7 -2 -11 -11z"/>
<path d="M1309 1331 c-18 -14 -21 -23 -13 -31 8 -8 15 -6 25 7 13 16 12 17 -3
4 -12 -9 -18 -10 -18 -2 0 6 11 16 25 21 14 5 25 12 25 15 0 11 -19 4 -41 -14z"/>
<path d="M628 1333 c6 -2 10 -9 6 -14 -3 -5 -2 -9 3 -8 19 3 27 -2 14 -10 -9
-6 -23 -4 -38 6 -13 9 -26 13 -30 9 -3 -3 -1 -6 5 -6 9 0 9 -5 0 -20 -9 -14
-9 -23 -2 -30 8 -8 10 -4 10 11 -1 12 6 24 14 27 13 5 13 3 0 -13 -13 -17 -13
-18 0 -10 8 5 21 10 29 12 26 3 33 20 16 37 -9 9 -22 16 -28 15 -8 0 -8 -2 1
-6z"/>
<path d="M1401 1335 c0 -5 3 -16 8 -23 7 -11 9 -10 14 3 4 9 3 14 -2 10 -5 -3
-12 1 -14 7 -3 7 -6 9 -6 3z"/>
<path d="M792 1316 c7 -8 15 -12 17 -11 5 6 -10 25 -20 25 -5 0 -4 -6 3 -14z"/>
<path d="M1090 1320 c0 -5 5 -10 10 -10 6 0 10 5 10 10 0 6 -4 10 -10 10 -5 0
-10 -4 -10 -10z"/>
<path d="M1150 1316 c7 -7 13 -7 20 0 6 6 3 10 -10 10 -13 0 -16 -4 -10 -10z"/>
<path d="M1353 1324 c4 -4 -2 -14 -13 -21 -11 -8 -18 -18 -15 -23 10 -16 -20
-17 -33 -1 -11 14 -12 13 -2 -6 5 -12 15 -25 22 -29 6 -4 8 -3 5 2 -3 6 3 15
14 22 14 9 19 9 19 0 0 -6 3 -8 6 -5 4 4 1 14 -7 24 -12 15 -12 16 4 10 10 -4
16 -3 12 2 -3 5 0 11 7 13 7 3 4 7 -7 12 -11 4 -16 4 -12 0z"/>
<path d="M556 1307 c3 -10 9 -15 12 -12 3 3 0 11 -7 18 -10 9 -11 8 -5 -6z"/>
<path d="M1467 1308 c-15 -12 -15 -15 4 -38 15 -18 19 -20 15 -6 -5 14 -2 17
9 12 10 -3 13 -2 10 5 -4 6 -13 8 -20 5 -24 -9 -26 8 -3 21 13 7 18 12 12 13
-5 0 -18 -6 -27 -12z"/>
<path d="M766 1295 c-4 -12 -10 -14 -25 -5 -11 5 -26 10 -33 9 -7 0 -4 -4 7
-9 11 -5 14 -9 7 -9 -10 -1 -10 -4 2 -16 19 -20 32 -19 16 0 -12 14 -10 15 15
11 28 -5 65 -32 65 -47 0 -5 -7 -6 -15 -3 -8 4 -15 4 -15 1 0 -3 7 -8 15 -11
10 -4 19 3 27 18 7 16 16 23 27 19 13 -5 14 -4 3 8 -11 12 -15 11 -26 -3 -12
-17 -14 -17 -30 0 -9 10 -13 22 -9 26 4 4 -1 4 -12 0 -18 -7 -18 -6 -6 9 7 9
9 17 3 17 -5 0 -13 -7 -16 -15z"/>
<path d="M882 1298 c-15 -15 -15 -28 0 -28 6 0 8 3 5 7 -4 3 1 12 11 19 9 7
12 14 7 14 -6 0 -16 -5 -23 -12z"/>
<path d="M948 1299 c-20 -11 -24 -29 -7 -29 5 0 8 4 5 9 -6 9 23 25 31 18 2
-2 -6 -16 -18 -31 -20 -25 -22 -26 -34 -9 -12 15 -16 16 -27 4 -11 -12 -10
-13 3 -8 11 4 20 -3 28 -19 6 -14 16 -22 21 -19 6 3 10 2 10 -3 0 -17 -13 -22
-29 -9 -14 11 -15 10 -1 -7 14 -18 13 -19 -3 -13 -10 4 -16 3 -12 -2 3 -5 -1
-12 -7 -14 -8 -3 -9 -6 -2 -6 19 -2 65 41 60 55 -3 7 3 18 12 23 9 6 12 11 6
11 -6 0 -17 -7 -24 -15 -7 -9 -15 -13 -18 -11 -2 3 7 19 22 36 34 41 24 63
-16 39z"/>
<path d="M1051 1293 c-6 -10 -11 -14 -11 -9 0 5 -7 3 -15 -4 -8 -7 -15 -18
-15 -24 0 -6 7 -3 14 6 7 10 16 15 19 11 4 -3 9 1 13 10 3 9 12 13 20 10 8 -3
12 -9 9 -13 -3 -5 4 -15 15 -23 11 -7 17 -17 13 -21 -4 -4 1 -4 12 0 11 5 14
9 7 12 -7 2 -10 8 -7 13 4 5 -2 6 -12 2 -16 -6 -16 -5 -4 10 8 10 11 20 7 24
-3 3 -6 1 -6 -6 0 -8 -8 -6 -24 4 -23 15 -25 15 -35 -2z"/>
<path d="M1130 1306 c0 -3 5 -17 12 -31 8 -18 14 -22 19 -13 5 7 16 13 25 13
10 0 18 6 20 13 1 7 0 8 -3 2 -8 -17 -23 -11 -17 8 4 11 -1 8 -15 -8 -16 -20
-21 -21 -21 -8 0 9 -4 20 -10 23 -5 3 -10 4 -10 1z"/>
<path d="M1231 1289 c-18 -19 -19 -25 -8 -34 8 -6 12 -24 11 -45 -2 -26 -1
-29 4 -12 4 13 11 23 17 22 21 -3 15 20 -9 31 -26 12 -27 33 -2 23 18 -7 31
15 18 28 -6 6 -17 2 -31 -13z m29 1 c0 -5 -5 -10 -11 -10 -5 0 -7 5 -4 10 3 6
8 10 11 10 2 0 4 -4 4 -10z m0 -60 c0 -5 -2 -10 -4 -10 -3 0 -8 5 -11 10 -3 6
-1 10 4 10 6 0 11 -4 11 -10z"/>
<path d="M1389 1300 c-1 -8 -1 -18 0 -22 0 -5 -3 -8 -9 -8 -5 0 -10 -5 -10
-12 0 -8 6 -6 17 4 15 16 17 16 31 0 13 -16 13 -16 8 1 -6 18 9 24 17 7 3 -6
4 -5 3 2 -2 7 -10 13 -20 13 -9 0 -21 7 -26 15 -9 13 -10 13 -11 0z"/>
<path d="M510 1295 c0 -5 5 -17 10 -25 5 -8 10 -10 10 -5 0 6 -5 17 -10 25 -5
8 -10 11 -10 5z"/>
<path d="M536 1285 c4 -8 8 -15 10 -15 2 0 4 7 4 15 0 8 -4 15 -10 15 -5 0 -7
-7 -4 -15z"/>
<path d="M443 1280 c2 -8 -5 -27 -15 -42 -11 -16 -15 -28 -9 -28 6 0 11 5 11
11 0 5 4 8 9 5 5 -3 14 1 21 9 9 11 8 19 -5 37 -9 13 -15 16 -12 8z m9 -42
c-7 -7 -12 -8 -12 -2 0 14 12 26 19 19 2 -3 -1 -11 -7 -17z"/>
<path d="M466 1278 c3 -4 9 -8 15 -8 5 0 9 4 9 8 0 5 -7 9 -15 9 -8 0 -12 -4
-9 -9z"/>
<path d="M660 1280 c-8 -5 -10 -10 -5 -10 6 0 17 5 25 10 8 5 11 10 5 10 -5 0
-17 -5 -25 -10z"/>
<path d="M414 1271 c5 -8 0 -10 -19 -7 -15 3 -25 2 -21 -1 11 -11 45 -13 51
-4 3 5 0 13 -6 17 -8 4 -9 3 -5 -5z"/>
<path d="M497 1263 c-12 -12 -7 -22 16 -35 25 -15 34 -53 10 -44 -8 3 -11 1
-8 -4 3 -6 1 -10 -6 -10 -7 0 -10 -3 -6 -6 7 -8 67 27 67 39 0 5 -8 3 -17 -4
-15 -12 -16 -12 -10 4 5 13 0 21 -17 29 -15 6 -22 16 -19 24 5 15 1 18 -10 7z"/>
<path d="M544 1255 c-18 -15 -18 -15 0 -8 13 4 17 3 12 -5 -5 -8 -1 -10 10 -5
11 4 13 8 6 11 -7 2 -10 8 -6 13 8 13 1 11 -22 -6z"/>
<path d="M608 1246 c-7 -16 -16 -23 -27 -19 -13 5 -14 4 -3 -8 11 -12 15 -11
26 3 9 12 16 14 24 8 9 -7 9 -7 2 2 -15 19 -12 32 5 18 9 -7 15 -8 15 -2 0 23
-31 21 -42 -2z"/>
<path d="M664 1245 c-9 -14 -14 -28 -11 -32 4 -3 11 6 16 21 6 14 16 26 22 26
8 0 7 -6 -2 -17 -13 -16 -12 -17 3 -4 10 7 15 17 12 22 -9 15 -23 10 -40 -16z"/>
<path d="M1057 1263 c-4 -3 -7 -10 -7 -14 0 -12 49 -43 57 -36 3 4 -6 11 -21
16 -14 6 -26 16 -26 22 0 8 6 7 18 -2 15 -13 16 -12 3 4 -15 19 -15 19 -24 10z"/>
<path d="M1270 1265 c0 -5 5 -17 10 -25 5 -8 10 -10 10 -5 0 6 -5 17 -10 25
-5 8 -10 11 -10 5z"/>
<path d="M761 1255 c0 -5 3 -16 8 -23 7 -11 9 -10 14 3 4 9 3 14 -2 10 -5 -3
-12 1 -14 7 -3 7 -6 9 -6 3z"/>
<path d="M1166 1244 c-4 -9 -4 -19 -1 -22 3 -3 5 0 5 7 0 7 4 9 10 6 6 -3 7 1
4 9 -8 20 -10 20 -18 0z"/>
<path d="M294 1238 c6 -20 -10 -25 -17 -5 -4 9 -6 9 -6 0 -1 -16 19 -27 29
-17 5 5 5 16 -1 24 -9 13 -10 12 -5 -2z"/>
<path d="M316 1237 c3 -10 9 -15 12 -12 3 3 0 11 -7 18 -10 9 -11 8 -5 -6z"/>
<path d="M346 1242 c-2 -4 4 -8 14 -8 10 0 16 4 14 8 -3 4 -9 8 -14 8 -5 0
-11 -4 -14 -8z"/>
<path d="M1330 1240 c0 -5 5 -10 10 -10 6 0 10 5 10 10 0 6 -4 10 -10 10 -5 0
-10 -4 -10 -10z"/>
<path d="M1386 1242 c-2 -4 4 -8 14 -8 10 0 16 4 14 8 -3 4 -9 8 -14 8 -5 0
-11 -4 -14 -8z"/>
<path d="M1456 1238 c5 -8 2 -9 -9 -5 -10 3 -17 2 -17 -4 0 -14 32 -7 38 9 2
6 -1 12 -8 12 -6 0 -8 -5 -4 -12z"/>
<path d="M390 1229 c0 -5 5 -7 10 -4 6 3 10 8 10 11 0 2 -4 4 -10 4 -5 0 -10
-5 -10 -11z"/>
<path d="M701 1226 c-9 -11 -10 -20 -1 -35 11 -22 30 -28 30 -10 0 5 -4 8 -9
5 -5 -3 -12 1 -15 10 -10 26 -7 27 19 10 14 -9 30 -14 35 -11 5 3 11 1 14 -3
3 -5 -6 -14 -20 -21 -23 -10 -31 -35 -10 -31 5 1 13 -4 18 -12 5 -9 7 -4 4 14
-3 17 1 28 10 32 9 3 12 10 9 16 -10 16 4 12 35 -12 16 -12 33 -19 37 -15 3 4
1 7 -6 7 -7 0 -9 4 -6 10 4 6 -1 7 -12 3 -16 -6 -17 -5 -3 13 14 17 14 18 -2
6 -12 -9 -18 -10 -23 -2 -4 6 -13 9 -21 6 -7 -3 -18 3 -24 12 -11 16 -11 16
-6 0 6 -21 -2 -22 -27 -4 -18 14 -18 14 0 19 14 4 15 5 2 6 -9 0 -22 -5 -28
-13z m59 -70 c0 -3 -4 -8 -10 -11 -5 -3 -10 -1 -10 4 0 6 5 11 10 11 6 0 10
-2 10 -4z"/>
<path d="M868 1233 c6 -2 18 -2 25 0 6 3 1 5 -13 5 -14 0 -19 -2 -12 -5z"/>
<path d="M992 1231 c-11 -7 -10 -9 3 -14 9 -4 14 -3 10 2 -3 5 1 12 7 14 7 3
9 6 3 6 -5 0 -16 -3 -23 -8z"/>
<path d="M1356 1225 c-9 -26 -7 -32 5 -12 6 10 9 21 6 23 -2 3 -7 -2 -11 -11z"/>
<path d="M216 1215 c-9 -26 -7 -32 5 -12 6 10 9 21 6 23 -2 3 -7 -2 -11 -11z"/>
<path d="M470 1220 c0 -5 5 -10 10 -10 6 0 10 5 10 10 0 6 -4 10 -10 10 -5 0
-10 -4 -10 -10z"/>
<path d="M856 1203 c10 -18 21 -33 24 -33 3 0 14 15 24 33 l18 32 -21 -25 -21
-25 -21 25 -21 25 18 -32z"/>
<path d="M1020 1209 c-13 -24 2 -50 29 -48 12 1 11 2 -3 6 -15 4 -16 7 -5 15
11 8 10 8 -5 4 -14 -5 -17 -2 -12 10 3 8 6 18 6 20 0 3 5 2 10 -1 6 -3 10 -1
10 4 0 18 -19 12 -30 -10z"/>
<path d="M1118 1209 c-12 -13 -14 -19 -5 -19 7 0 18 9 25 20 15 25 3 25 -20
-1z"/>
<path d="M1186 1215 c-11 -8 -17 -17 -14 -21 4 -3 16 4 27 15 24 24 15 28 -13
6z"/>
<path d="M1295 1220 c-8 -13 3 -30 18 -29 9 0 9 2 0 6 -7 2 -13 9 -13 14 0 6
8 5 20 -1 11 -6 20 -8 20 -6 0 12 -39 26 -45 16z"/>
<path d="M176 1209 c2 -4 -3 -15 -12 -23 -8 -9 -11 -16 -6 -16 5 0 17 11 25
23 12 19 13 24 2 24 -8 0 -12 -4 -9 -8z"/>
<path d="M334 1209 c-7 -13 13 -29 36 -28 8 0 4 5 -10 11 l-25 11 25 7 c23 7
23 8 3 9 -12 1 -25 -4 -29 -10z"/>
<path d="M1376 1211 c-3 -4 6 -6 19 -3 14 2 25 6 25 8 0 8 -39 4 -44 -5z"/>
<path d="M1470 1209 c0 -5 -5 -7 -11 -3 -8 4 -8 0 0 -15 15 -27 16 -26 17 4 1
14 0 25 -2 25 -2 0 -4 -5 -4 -11z"/>
<path d="M240 1200 c-8 -5 -12 -11 -10 -14 3 -2 14 2 24 10 22 15 10 19 -14 4z"/>
<path d="M300 1200 c-9 -6 -10 -10 -3 -10 6 0 15 5 18 10 8 12 4 12 -15 0z"/>
<path d="M393 1184 c0 -23 1 -24 9 -10 7 12 7 21 0 28 -6 6 -9 0 -9 -18z"/>
<path d="M452 1196 c7 -8 15 -12 17 -11 5 6 -10 25 -20 25 -5 0 -4 -6 3 -14z"/>
<path d="M484 1185 c-16 -24 -16 -27 2 -40 10 -7 21 -11 23 -9 3 2 -4 10 -14
18 -17 12 -17 14 3 34 12 12 18 22 12 22 -5 0 -17 -11 -26 -25z"/>
<path d="M610 1200 c0 -5 5 -10 10 -10 6 0 10 5 10 10 0 6 -4 10 -10 10 -5 0
-10 -4 -10 -10z"/>
<path d="M1064 1194 c3 -9 6 -18 6 -20 0 -3 5 -2 11 2 8 4 9 -1 5 -17 -3 -13
-3 -18 0 -11 3 6 10 9 16 6 6 -4 5 2 -1 15 -7 11 -16 21 -22 21 -6 0 -7 5 -4
10 3 6 1 10 -5 10 -7 0 -9 -7 -6 -16z"/>
<path d="M1270 1203 c0 -7 5 -15 10 -18 6 -3 11 -16 11 -28 1 -17 2 -18 6 -5
2 10 -3 28 -11 40 -9 12 -16 17 -16 11z"/>
<path d="M636 1185 c-9 -26 -7 -32 5 -12 6 10 9 21 6 23 -2 3 -7 -2 -11 -11z"/>
<path d="M195 1180 c3 -6 1 -10 -6 -10 -7 0 -10 -3 -6 -6 3 -3 13 -2 22 4 16
8 16 9 1 15 -10 4 -15 3 -11 -3z"/>
<path d="M259 1183 c-1 -5 -1 -12 0 -17 1 -5 -5 -6 -14 -2 -11 4 -14 2 -9 -6
5 -8 2 -9 -9 -5 -24 9 -21 0 4 -14 15 -8 19 -8 15 0 -4 6 -2 12 3 12 6 1 17 2
24 3 6 1 17 -5 23 -13 9 -11 12 -12 19 -1 5 8 4 11 -2 7 -6 -4 -15 5 -21 18
-11 24 -31 34 -33 18z m21 -13 c0 -5 -2 -10 -4 -10 -3 0 -8 5 -11 10 -3 6 -1
10 4 10 6 0 11 -4 11 -10z"/>
<path d="M428 1179 c-20 -11 -24 -29 -7 -29 5 0 7 5 3 11 -4 8 1 9 17 5 13 -3
18 -3 11 0 -6 3 -10 10 -6 15 7 11 3 11 -18 -2z"/>
<path d="M579 1183 c-1 -5 -1 -12 0 -17 1 -5 -4 -6 -12 -3 -25 10 -38 -8 -16
-22 12 -7 18 -8 14 -2 -3 6 -1 12 4 12 6 1 17 2 24 3 6 1 17 -5 24 -14 18 -22
16 -3 -3 25 -16 24 -33 33 -35 18z m21 -13 c0 -5 -2 -10 -4 -10 -3 0 -8 5 -11
10 -3 6 -1 10 4 10 6 0 11 -4 11 -10z"/>
<path d="M668 1179 c-20 -11 -24 -29 -7 -29 5 0 7 5 3 11 -4 8 1 9 17 5 13 -3
18 -3 11 0 -6 3 -10 10 -6 15 7 11 3 11 -18 -2z"/>
<path d="M971 1185 c-1 -5 8 -21 19 -35 14 -18 22 -22 30 -14 8 8 7 14 -5 24
-8 7 -15 9 -15 4 0 -4 -7 1 -15 12 -8 10 -14 15 -14 9z m44 -35 c3 -5 1 -10
-4 -10 -6 0 -11 5 -11 10 0 6 2 10 4 10 3 0 8 -4 11 -10z"/>
<path d="M1134 1178 c-5 -8 -2 -9 9 -5 10 3 17 3 17 -1 0 -5 6 -16 13 -26 12
-17 14 -17 28 1 13 17 13 17 -5 3 -17 -13 -19 -13 -14 0 3 8 15 15 27 14 15 0
19 2 11 10 -7 7 -16 7 -29 -1 -15 -10 -20 -9 -25 2 -7 18 -22 19 -32 3z"/>
<path d="M1250 1181 c0 -5 7 -12 16 -15 14 -5 15 -4 4 9 -14 17 -20 19 -20 6z"/>
<path d="M1336 1178 c3 -5 15 -6 27 -3 18 5 17 2 -8 -19 -16 -14 -25 -26 -19
-26 15 0 55 40 49 49 -2 5 -16 9 -30 9 -13 0 -22 -5 -19 -10z"/>
<path d="M1410 1175 c-7 -8 -9 -15 -4 -15 5 0 2 -4 -6 -10 -8 -5 -11 -12 -6
-17 7 -8 28 19 26 34 -1 4 7 10 17 14 15 6 15 8 2 8 -9 1 -22 -6 -29 -14z"/>
<path d="M310 1170 c0 -5 5 -10 10 -10 6 0 10 5 10 10 0 6 -4 10 -10 10 -5 0
-10 -4 -10 -10z"/>
<path d="M1314 1160 c0 -13 4 -16 10 -10 7 7 7 13 0 20 -6 6 -10 3 -10 -10z"/>
<path d="M350 1156 c7 -7 13 -7 20 0 6 6 3 10 -10 10 -13 0 -16 -4 -10 -10z"/>
<path d="M800 1160 c13 -8 12 -10 -4 -10 -11 0 -17 -3 -13 -6 3 -3 15 -3 28 1
17 6 19 9 8 16 -8 5 -18 9 -24 9 -5 0 -3 -5 5 -10z"/>
<path d="M942 1161 c-11 -6 -10 -10 4 -15 20 -8 32 0 18 14 -5 5 -15 5 -22 1z"/>
<path d="M863 1153 c-7 -2 -13 -9 -13 -15 0 -6 6 -6 15 2 12 10 18 10 30 0 9
-7 15 -8 15 -2 0 8 -26 25 -33 21 -1 0 -8 -3 -14 -6z"/>
<path d="M1210 1135 c-19 -14 -29 -25 -23 -25 7 0 15 5 18 10 4 6 11 7 17 4 7
-5 8 -2 3 6 -5 8 -3 11 6 8 8 -3 13 -11 12 -17 -2 -6 2 -11 7 -11 13 0 13 17
-1 26 -8 4 -7 9 2 15 8 5 9 9 3 9 -5 0 -25 -11 -44 -25z"/>
<path d="M1470 1151 c0 -7 -5 -9 -12 -5 -7 5 -8 3 -3 -5 5 -9 10 -10 18 -2 6
6 8 14 4 18 -4 3 -7 1 -7 -6z"/>
<path d="M330 1140 c0 -5 5 -10 11 -10 5 0 7 -5 3 -12 -4 -7 -3 -8 5 -4 9 6 9
11 0 22 -14 17 -19 18 -19 4z"/>
<path d="M375 1140 c-3 -4 -2 -16 2 -26 3 -10 2 -15 -3 -12 -12 8 -50 -20 -40
-29 4 -4 11 -1 16 7 6 8 10 11 10 6 0 -5 7 -3 15 4 10 8 13 20 9 34 -6 18 -5
19 10 7 9 -7 16 -9 16 -3 0 13 -28 23 -35 12z"/>
<path d="M436 1135 c-12 -13 -14 -21 -6 -30 8 -10 7 -14 -2 -18 -9 -4 -9 -6
-1 -6 7 -1 22 9 35 22 13 12 22 21 20 20 -3 -2 -10 4 -17 13 -10 15 -13 15
-29 -1z m24 -29 c-15 -15 -33 4 -19 20 10 12 14 12 20 2 5 -7 4 -17 -1 -22z"/>
<path d="M690 1141 c0 -5 5 -13 10 -16 6 -3 10 -2 10 4 0 5 -4 13 -10 16 -5 3
-10 2 -10 -4z"/>
<path d="M1042 1135 c-7 -8 -9 -15 -4 -15 5 0 15 7 22 15 16 19 -1 19 -18 0z"/>
<path d="M1141 1133 c-6 -10 -11 -13 -11 -7 0 13 -30 15 -30 2 0 -5 -5 -6 -10
-3 -6 4 -17 1 -25 -5 -8 -7 -24 -10 -35 -7 -12 3 -18 1 -14 -5 3 -5 -2 -9 -12
-7 -11 1 -30 -3 -44 -8 -14 -6 -31 -8 -37 -6 -7 3 -13 1 -13 -5 0 -5 -14 -12
-30 -15 -34 -7 -65 -15 -65 -17 0 -9 -51 -7 -57 2 -5 9 -8 7 -8 -7 0 -17 -2
-17 -10 -5 -8 13 -10 12 -10 -4 0 -15 -5 -17 -26 -12 -14 4 -23 3 -20 -2 5 -9
-9 -13 -61 -14 -18 -1 -30 -5 -28 -9 6 -8 -55 -26 -105 -30 -8 -1 -19 -5 -25
-9 -5 -4 -24 -11 -42 -14 -41 -9 -61 -32 -43 -49 10 -10 12 -9 7 6 -10 26 5
20 41 -17 25 -27 29 -36 18 -45 -13 -11 -26 -5 -26 11 0 5 5 6 12 2 7 -5 8 -3
3 5 -5 9 -10 10 -18 2 -12 -12 10 -44 24 -35 5 3 9 0 9 -5 0 -6 5 -11 11 -11
8 0 8 5 -1 15 -20 25 6 17 39 -11 17 -14 29 -30 25 -35 -3 -5 0 -9 6 -9 18 0
42 -28 29 -32 -13 -4 10 -48 25 -48 5 0 1 9 -9 20 -10 11 -13 20 -7 20 17 0
62 -42 56 -52 -3 -4 3 -8 13 -8 15 0 16 -2 3 -10 -13 -8 -12 -10 4 -10 10 0
45 -26 77 -59 47 -47 56 -61 46 -70 -14 -11 -27 -5 -27 11 0 5 5 6 12 2 7 -5
8 -3 3 5 -5 9 -10 10 -18 2 -12 -12 10 -44 24 -35 5 3 9 0 9 -5 0 -6 5 -11 11
-11 8 0 8 5 -1 15 -16 20 0 19 28 -1 12 -8 20 -20 17 -25 -4 -5 0 -9 7 -9 15
0 54 -41 50 -53 -1 -4 3 -7 9 -7 6 0 18 -7 27 -16 15 -15 17 -14 26 21 6 20
14 33 19 29 4 -4 6 3 4 17 -2 14 3 30 12 37 9 8 11 11 4 8 -7 -4 -11 1 -10 14
1 11 5 20 9 20 4 0 5 9 3 21 -3 13 0 19 8 16 7 -3 11 -10 9 -16 -1 -7 3 -9 9
-6 7 5 8 10 0 18 -7 7 -5 14 7 23 14 11 15 15 3 26 -12 11 -13 10 -8 -4 3 -9
0 -19 -9 -22 -11 -4 -13 0 -7 22 3 15 13 32 20 37 8 6 13 22 12 35 -4 45 0 62
14 54 9 -6 9 -5 0 8 -7 8 -10 18 -6 22 4 4 9 19 11 34 2 15 8 32 14 37 7 7 9
7 5 0 -3 -6 4 -11 15 -11 l20 0 -20 14 c-20 13 -20 42 0 42 5 0 7 -4 4 -9 -3
-5 1 -14 9 -21 10 -9 15 -9 15 -1 0 6 -5 11 -11 11 -5 0 -7 5 -4 10 3 6 0 13
-9 16 -11 4 -12 12 -5 37 6 18 15 40 20 50 5 10 7 22 3 28 -3 5 -1 15 4 22 11
13 12 17 12 45 0 14 2 15 10 2 6 -9 5 -17 -3 -22 -8 -5 -9 -8 -1 -8 6 0 18 8
25 17 8 9 9 14 4 11 -6 -4 -16 2 -23 13 -7 11 -8 19 -2 19 5 0 14 9 20 20 13
25 5 27 -9 3z m-124 -465 c-3 -8 -6 -5 -6 6 -1 11 2 17 5 13 3 -3 4 -12 1 -19z"/>
<path d="M1273 1133 c0 -12 3 -20 6 -18 2 3 10 -3 18 -13 14 -16 14 -16 9 1
-6 18 9 24 17 7 3 -6 4 -5 3 2 -2 7 -10 13 -20 13 -9 0 -21 7 -26 15 -7 11 -9
10 -7 -7z"/>
<path d="M256 1124 c-5 -14 -9 -14 -24 -3 -15 12 -16 12 -5 -2 7 -9 10 -19 6
-22 -3 -4 -2 -7 3 -7 11 0 37 40 31 46 -3 3 -7 -3 -11 -12z"/>
<path d="M523 1126 c1 -10 -4 -21 -12 -24 -9 -3 -11 0 -6 8 6 9 4 11 -5 5 -10
-6 -9 -11 5 -22 11 -7 22 -13 27 -13 4 0 5 -8 1 -17 -5 -15 -4 -16 8 -5 12 11
11 15 -3 26 -16 12 -16 14 0 31 9 10 12 15 5 11 -6 -3 -14 0 -17 6 -3 7 -4 4
-3 -6z"/>
<path d="M575 1121 c-3 -12 -11 -19 -16 -16 -5 4 -9 1 -9 -4 0 -6 4 -11 10
-11 11 0 34 39 27 47 -3 2 -8 -5 -12 -16z"/>
<path d="M636 1123 c-9 -22 16 -37 30 -18 6 8 14 12 18 8 4 -4 4 1 0 11 -7 17
-8 17 -19 -3 -12 -23 -27 -19 -18 5 3 8 3 14 0 14 -3 0 -8 -8 -11 -17z"/>
<path d="M830 1135 c0 -5 5 -17 10 -25 5 -8 10 -10 10 -5 0 6 -5 17 -10 25 -5
8 -10 11 -10 5z"/>
<path d="M921 1135 c0 -5 3 -16 8 -23 7 -11 9 -10 14 3 4 9 3 14 -2 10 -5 -3
-12 1 -14 7 -3 7 -6 9 -6 3z"/>
<path d="M721 1114 c0 -11 3 -14 6 -6 3 7 2 16 -1 19 -3 4 -6 -2 -5 -13z"/>
<path d="M781 1114 c0 -11 3 -14 6 -6 3 7 2 16 -1 19 -3 4 -6 -2 -5 -13z"/>
<path d="M865 1120 c-3 -6 1 -7 9 -4 18 7 21 14 7 14 -6 0 -13 -4 -16 -10z"/>
<path d="M959 1113 c-13 -17 -13 -17 6 -3 11 8 22 16 24 17 2 2 0 3 -6 3 -6 0
-17 -8 -24 -17z"/>
<path d="M1354 1119 c-8 -14 18 -31 30 -19 9 9 0 30 -14 30 -5 0 -12 -5 -16
-11z m26 -9 c0 -5 -2 -10 -4 -10 -3 0 -8 5 -11 10 -3 6 -1 10 4 10 6 0 11 -4
11 -10z"/>
<path d="M1420 1126 c0 -2 9 -6 20 -9 11 -3 18 -1 14 4 -5 9 -34 13 -34 5z"/>
<path d="M310 1110 c0 -5 5 -10 10 -10 6 0 10 5 10 10 0 6 -4 10 -10 10 -5 0
-10 -4 -10 -10z"/>
<path d="M1400 1116 c0 -2 7 -9 15 -16 9 -7 15 -8 15 -2 0 5 -7 12 -15 16 -8
3 -15 4 -15 2z"/>
<path d="M275 1100 c3 -6 1 -10 -6 -10 -7 0 -10 -3 -6 -6 3 -3 13 -2 22 4 16
8 16 9 1 15 -10 4 -15 3 -11 -3z"/>
<path d="M396 1094 c-6 -16 23 -48 34 -37 3 2 -3 9 -12 14 -10 5 -15 16 -12
24 4 8 4 15 1 15 -3 0 -8 -7 -11 -16z"/>
<path d="M595 1100 c3 -6 1 -10 -6 -10 -7 0 -10 -3 -6 -6 3 -3 13 -2 22 4 16
8 16 9 1 15 -10 4 -15 3 -11 -3z"/>
<path d="M680 1090 c-15 -11 -29 -15 -35 -10 -6 5 -17 5 -25 -1 -13 -9 -13
-10 0 -6 8 2 22 -1 30 -7 8 -7 29 -18 45 -24 28 -11 28 -11 11 3 -11 8 -26 15
-34 15 -7 0 -10 5 -7 11 4 6 14 8 22 5 8 -3 12 -2 8 3 -3 5 1 11 7 14 7 2 11
7 8 10 -3 3 -16 -3 -30 -13z"/>
<path d="M748 1096 c-10 -7 -14 -17 -10 -21 4 -5 -1 -5 -10 -2 -10 4 -18 2
-18 -3 0 -16 30 -12 36 4 3 8 11 14 17 12 7 -1 9 -1 4 1 -4 3 -5 9 -1 14 7 12
2 11 -18 -5z"/>
<path d="M807 1095 c-15 -11 -17 -17 -7 -32 10 -15 11 -16 6 -1 -3 10 2 21 12
27 9 5 15 12 12 14 -3 3 -13 -1 -23 -8z"/>
<path d="M850 1088 c-26 -15 -28 -18 -10 -13 14 4 34 7 45 7 11 0 14 2 7 5 -6
3 -10 9 -6 14 6 11 7 11 -36 -13z"/>
<path d="M1150 1100 c0 -5 5 -10 10 -10 6 0 10 5 10 10 0 6 -4 10 -10 10 -5 0
-10 -4 -10 -10z"/>
<path d="M1192 1089 c-22 -20 -22 -39 1 -39 8 0 8 3 -2 9 -9 6 -10 11 -2 15 6
4 14 0 17 -8 3 -9 11 -16 17 -16 6 0 4 8 -5 17 -16 15 -16 17 0 29 9 8 12 14
6 14 -5 0 -20 -9 -32 -21z"/>
<path d="M1234 1089 c-3 -6 -2 -15 3 -20 5 -5 9 -1 9 11 0 23 -2 24 -12 9z"/>
<path d="M1260 1081 c0 -11 4 -22 9 -25 4 -3 6 6 3 19 -5 30 -12 33 -12 6z"/>
<path d="M1436 1085 c-9 -26 -7 -32 5 -12 6 10 9 21 6 23 -2 3 -7 -2 -11 -11z"/>
<path d="M294 1075 c-12 -8 -25 -11 -29 -7 -5 4 -5 1 -1 -5 5 -10 13 -9 32 3
13 9 24 18 24 20 0 7 -5 5 -26 -11z"/>
<path d="M461 1081 c-11 -7 -9 -10 9 -16 12 -4 27 -2 32 3 8 8 4 9 -13 6 -19
-5 -21 -4 -9 5 18 13 1 15 -19 2z"/>
<path d="M1336 1079 c4 -8 -1 -9 -17 -5 -13 3 -18 3 -11 0 6 -3 9 -10 6 -16
-4 -6 2 -5 15 1 22 12 29 31 10 31 -5 0 -7 -5 -3 -11z"/>
<path d="M1385 1080 c-4 -6 -12 -7 -18 -3 -7 4 -6 0 2 -10 7 -9 19 -17 26 -17
7 0 15 -7 19 -15 3 -8 11 -15 18 -14 10 0 10 2 0 6 -6 2 -10 9 -7 14 3 4 -6
11 -20 15 -13 3 -22 10 -19 16 3 5 13 7 21 4 8 -3 11 -1 8 4 -8 13 -22 13 -30
0z"/>
<path d="M352 1052 c-22 -22 -30 -48 -12 -37 6 3 10 12 10 20 0 7 7 15 15 19
9 3 15 0 15 -9 0 -18 16 -20 26 -2 4 6 4 9 -1 5 -4 -4 -13 0 -20 9 -11 15 -14
14 -33 -5z"/>
<path d="M562 1052 c-22 -17 -22 -17 -3 -29 19 -12 41 0 27 14 -3 4 -6 1 -6
-6 0 -7 -5 -9 -12 -5 -8 5 -5 11 7 20 10 8 17 16 14 18 -2 3 -14 -3 -27 -12z"/>
<path d="M770 1060 c0 -5 5 -10 11 -10 5 0 7 5 4 10 -3 6 -8 10 -11 10 -2 0
-4 -4 -4 -10z"/>
<path d="M310 1050 c0 -5 5 -10 10 -10 6 0 10 5 10 10 0 6 -4 10 -10 10 -5 0
-10 -4 -10 -10z"/>
<path d="M437 1046 c-4 -9 -3 -15 2 -11 5 3 11 0 13 -7 3 -7 7 -5 11 6 4 9 3
15 -2 11 -5 -3 -11 0 -13 7 -3 7 -7 5 -11 -6z"/>
<path d="M510 1049 c0 -5 -5 -7 -11 -3 -8 4 -8 0 0 -15 12 -22 31 -29 31 -10
0 5 -5 7 -11 3 -8 -4 -9 0 -4 15 3 11 4 21 1 21 -3 0 -6 -5 -6 -11z"/>
<path d="M601 1055 c-1 -17 17 -38 33 -41 9 -1 14 2 10 7 -3 5 -10 7 -15 4 -5
-4 -9 -2 -9 4 0 15 18 23 25 11 3 -5 11 -10 18 -10 6 0 2 6 -9 14 -12 9 -23
11 -30 5 -8 -7 -14 -5 -17 3 -3 7 -6 9 -6 3z"/>
<path d="M1290 1051 c0 -10 19 -25 25 -20 1 2 -3 10 -11 17 -8 7 -14 8 -14 3z"/>
<path d="M1351 1055 c0 -13 28 -50 33 -44 3 2 -4 15 -14 29 -11 14 -20 21 -19
15z"/>
<path d="M1248 1043 c6 -2 12 -9 12 -14 0 -6 -9 -5 -22 1 -22 11 -22 11 -4 -4
12 -10 24 -12 29 -7 11 11 0 31 -16 30 -9 0 -9 -2 1 -6z"/>
<path d="M1116 1032 c-2 -4 -1 -14 4 -22 7 -11 9 -9 7 8 -1 24 -3 26 -11 14z"/>
<path d="M1160 1030 c-23 -7 -23 -8 -3 -9 12 -1 25 4 28 9 3 6 5 10 3 9 -2 -1
-14 -5 -28 -9z"/>
<path d="M1196 1025 c-9 -26 -7 -32 5 -12 6 10 9 21 6 23 -2 3 -7 -2 -11 -11z"/>
<path d="M400 1019 c-13 -9 -13 -10 1 -6 11 4 20 -3 28 -20 11 -24 39 -27 34
-4 -2 6 6 11 17 11 14 0 18 -5 14 -17 -5 -15 -4 -15 4 -3 16 21 4 31 -31 27
-19 -2 -36 2 -42 10 -7 9 -14 10 -25 2z m55 -29 c3 -5 1 -10 -4 -10 -6 0 -11
5 -11 10 0 6 2 10 4 10 3 0 8 -4 11 -10z"/>
<path d="M1276 1015 c-9 -26 -7 -32 5 -12 6 10 9 21 6 23 -2 3 -7 -2 -11 -11z"/>
<path d="M1330 1019 c0 -5 -4 -8 -9 -5 -14 9 -36 -23 -24 -35 7 -7 17 -1 32
20 13 17 18 31 12 31 -6 0 -11 -5 -11 -11z m-18 -31 c-7 -7 -12 -8 -12 -2 0
14 12 26 19 19 2 -3 -1 -11 -7 -17z"/>
<path d="M370 1009 c0 -5 -4 -7 -10 -4 -6 4 -7 -1 -3 -11 4 -11 8 -13 11 -6 2
7 8 10 13 7 5 -4 6 1 3 9 -7 18 -14 21 -14 5z"/>
<path d="M1401 1015 c0 -5 3 -16 8 -23 7 -11 9 -10 14 3 4 9 3 14 -2 10 -5 -3
-12 1 -14 7 -3 7 -6 9 -6 3z"/>
<path d="M535 1001 c-3 -5 0 -13 6 -17 8 -5 9 -3 4 6 -6 10 -4 12 9 7 10 -4
15 -3 11 3 -8 13 -22 13 -30 1z"/>
<path d="M1150 996 c7 -7 13 -7 20 0 6 6 3 10 -10 10 -13 0 -16 -4 -10 -10z"/>
<path d="M1210 1000 c0 -5 5 -10 10 -10 6 0 10 5 10 10 0 6 -4 10 -10 10 -5 0
-10 -4 -10 -10z"/>
<path d="M1353 1004 c4 -4 -2 -13 -13 -21 -11 -8 -19 -22 -19 -31 1 -14 2 -14
6 2 4 15 7 16 15 5 8 -11 9 -10 4 4 -8 24 10 21 28 -5 9 -12 16 -17 16 -11 0
6 -7 16 -15 23 -11 9 -13 15 -5 20 8 5 6 10 -6 14 -10 4 -15 4 -11 0z"/>
<path d="M387 978 c-10 -11 -16 -22 -13 -26 6 -6 35 27 36 41 0 10 -2 8 -23
-15z"/>
<path d="M1242 996 c4 -5 0 -15 -10 -23 -16 -12 -16 -14 0 -26 10 -8 14 -18
10 -23 -4 -4 1 -2 11 5 9 7 17 21 17 31 0 10 -8 24 -17 31 -10 7 -15 9 -11 5z
m16 -46 c-2 -6 -8 -6 -18 0 -13 9 -13 11 0 20 15 10 25 0 18 -20z"/>
<path d="M1136 966 c8 -32 -3 -34 -16 -3 -9 22 -9 22 -9 1 -1 -21 21 -39 33
-27 10 10 7 41 -4 48 -7 4 -9 -2 -4 -19z"/>
<path d="M1170 975 c-11 -13 -11 -19 3 -33 10 -9 17 -11 17 -5 0 6 -6 14 -12
16 -10 4 -9 8 2 16 8 5 12 13 9 16 -4 3 -12 -2 -19 -10z"/>
<path d="M1390 985 c0 -5 5 -17 10 -25 5 -8 10 -10 10 -5 0 6 -5 17 -10 25 -5
8 -10 11 -10 5z"/>
<path d="M1202 960 c0 -14 2 -19 5 -12 2 6 2 18 0 25 -3 6 -5 1 -5 -13z"/>
<path d="M410 959 c0 -5 5 -7 10 -4 6 3 10 8 10 11 0 2 -4 4 -10 4 -5 0 -10
-5 -10 -11z"/>
<path d="M1287 935 c-15 -11 -17 -17 -7 -32 10 -15 11 -16 6 -1 -3 10 2 21 12
27 9 5 15 12 12 14 -3 3 -13 -1 -23 -8z"/>
<path d="M1344 935 c-18 -15 -18 -15 0 -8 13 4 17 3 12 -5 -5 -8 -2 -10 9 -6
10 4 15 2 13 -7 -2 -7 5 -14 15 -15 12 -1 13 0 2 3 -8 2 -13 9 -9 14 3 5 11 6
17 3 7 -4 8 -3 4 2 -5 5 -13 10 -18 10 -5 1 -14 2 -20 3 -5 0 -7 6 -4 11 9 14
2 12 -21 -5z"/>
<path d="M1090 920 c0 -5 5 -10 10 -10 6 0 10 5 10 10 0 6 -4 10 -10 10 -5 0
-10 -4 -10 -10z"/>
<path d="M1146 922 c-2 -4 4 -8 14 -8 10 0 16 4 14 8 -3 4 -9 8 -14 8 -5 0
-11 -4 -14 -8z"/>
<path d="M1210 920 c0 -5 5 -10 10 -10 6 0 10 5 10 10 0 6 -4 10 -10 10 -5 0
-10 -4 -10 -10z"/>
<path d="M336 903 c-6 -14 -5 -15 5 -6 7 7 10 15 7 18 -3 3 -9 -2 -12 -12z"/>
<path d="M1116 904 c-8 -20 -8 -24 2 -24 4 0 8 9 9 20 2 24 -3 26 -11 4z"/>
<path d="M1190 915 c0 -5 5 -17 10 -25 5 -8 10 -10 10 -5 0 6 -5 17 -10 25 -5
8 -10 11 -10 5z"/>
<path d="M1308 913 c10 -4 10 -8 1 -19 -9 -11 -9 -18 -1 -26 8 -8 7 -15 -6
-24 -14 -11 -15 -15 -3 -26 12 -11 13 -10 8 3 -4 11 3 20 19 27 16 8 22 17 17
28 -5 14 -3 15 15 5 39 -21 37 -11 -3 14 -22 13 -44 24 -50 24 -5 0 -4 -3 3
-6z m28 -33 c0 -11 -4 -20 -8 -20 -11 0 -20 19 -13 30 10 16 21 11 21 -10z"/>
<path d="M1234 894 c-18 -15 -18 -15 4 -4 13 6 22 7 22 1 0 -5 -6 -12 -12 -14
-10 -4 -10 -6 -1 -6 16 -1 27 19 16 30 -5 5 -17 3 -29 -7z"/>
<path d="M286 884 c-4 -9 -4 -19 -1 -22 3 -3 5 0 5 7 0 7 4 9 10 6 6 -3 7 1 4
9 -8 20 -10 20 -18 0z"/>
<path d="M1140 896 c0 -2 11 -6 25 -8 13 -3 22 -1 19 3 -5 9 -44 13 -44 5z"/>
<path d="M233 869 c-2 -23 3 -25 10 -4 4 8 3 16 -1 19 -4 3 -9 -4 -9 -15z"/>
<path d="M345 880 c-4 -6 -12 -8 -18 -4 -7 3 -1 -4 12 -15 13 -12 28 -21 35
-20 7 0 6 2 -2 6 -6 2 -10 9 -7 14 4 5 -2 6 -12 3 -16 -5 -16 -4 1 10 11 9 15
16 9 16 -7 0 -15 -5 -18 -10z"/>
<path d="M400 879 c0 -5 -4 -7 -10 -4 -6 3 -7 -1 -4 -10 4 -9 7 -15 8 -13 1 2
8 11 15 21 9 11 10 17 2 17 -6 0 -11 -5 -11 -11z"/>
<path d="M205 870 c-4 -6 -11 -8 -16 -5 -5 4 -9 2 -9 -3 0 -11 30 -25 38 -17
3 3 0 5 -8 5 -10 0 -10 3 0 15 7 8 10 15 7 15 -3 0 -9 -5 -12 -10z"/>
<path d="M257 863 c-13 -12 -7 -23 18 -35 25 -11 25 -31 0 -21 -16 6 -19 -5
-7 -23 5 -8 13 -4 25 12 16 21 16 25 3 30 -9 3 -13 10 -10 15 3 5 -2 6 -11 3
-11 -5 -14 -2 -9 10 6 17 2 21 -9 9z"/>
<path d="M1128 861 c8 -4 12 -10 11 -12 -6 -9 20 -43 27 -36 5 5 2 12 -6 17
-8 6 -11 10 -6 10 5 0 3 7 -4 15 -7 8 -18 15 -24 15 -7 0 -6 -4 2 -9z"/>
<path d="M1175 859 c-6 -9 34 -49 49 -49 6 0 -2 12 -19 26 -25 21 -26 24 -8
19 12 -3 24 -2 27 3 3 5 -6 10 -19 10 -14 0 -28 -4 -30 -9z"/>
<path d="M1263 854 c-6 -16 16 -68 26 -59 2 3 -1 11 -7 17 -15 15 -16 52 -2
43 6 -3 10 -1 10 4 0 17 -20 13 -27 -5z"/>
<path d="M308 851 c8 -4 13 -11 13 -15 -1 -3 1 -6 4 -6 3 0 10 0 17 0 6 0 3 7
-8 15 -10 8 -23 14 -29 15 -5 0 -4 -4 3 -9z"/>
<path d="M1234 849 c-3 -6 -2 -15 3 -20 5 -5 9 -1 9 11 0 23 -2 24 -12 9z"/>
<path d="M1354 848 c-4 -7 -4 -10 1 -6 4 4 15 2 24 -5 14 -11 14 -10 2 6 -16
20 -18 21 -27 5z"/>
<path d="M90 838 c0 -9 5 -20 10 -23 13 -8 13 5 0 25 -8 13 -10 13 -10 -2z"/>
<path d="M160 830 c-23 -7 -23 -8 -3 -9 12 -1 25 4 28 9 3 6 5 10 3 9 -2 -1
-14 -5 -28 -9z"/>
<path d="M223 833 c-7 -3 -13 -9 -13 -15 0 -6 6 -6 15 2 8 7 15 8 15 2 0 -5
-6 -15 -14 -21 -11 -10 -17 -8 -25 6 -6 10 -11 13 -11 6 0 -6 11 -20 25 -31
13 -11 21 -22 17 -26 -3 -4 2 -4 13 0 11 5 14 9 7 12 -7 2 -10 8 -7 13 4 5 -2
6 -12 2 -17 -6 -16 -5 1 16 20 22 13 43 -11 34z"/>
<path d="M383 833 c-7 -3 -13 -9 -13 -15 0 -7 5 -6 14 1 11 9 14 6 14 -14 0
-13 -4 -22 -9 -19 -5 3 -12 -1 -15 -9 -3 -8 -13 -14 -22 -12 -9 2 -21 4 -25 4
-5 1 -6 5 -2 10 3 5 1 12 -4 16 -12 7 -47 -42 -37 -52 3 -3 6 -1 6 6 0 7 4 9
10 6 6 -4 7 1 3 10 -5 15 -3 15 15 4 11 -7 20 -17 19 -22 -5 -22 24 -16 34 7
7 14 16 23 21 20 4 -3 6 -9 3 -14 -3 -5 2 -21 12 -36 17 -27 17 -27 -7 -20
-22 6 -22 5 -7 -4 22 -14 48 3 46 29 -1 13 -2 12 -6 -2 -5 -18 -5 -18 -19 0
-18 25 -17 33 4 27 15 -5 15 -4 1 5 -11 7 -15 21 -13 40 4 32 -3 41 -23 34z
m-23 -83 c0 -5 -5 -10 -11 -10 -5 0 -7 5 -4 10 3 6 8 10 11 10 2 0 4 -4 4 -10z"/>
<path d="M1110 830 c0 -5 5 -10 11 -10 5 0 7 5 4 10 -3 6 -8 10 -11 10 -2 0
-4 -4 -4 -10z"/>
<path d="M1330 834 c0 -2 9 -8 20 -14 11 -6 20 -7 20 -2 0 6 -9 12 -20 15 -11
3 -20 3 -20 1z"/>
<path d="M46 802 c10 -20 20 -29 29 -25 18 6 19 22 4 43 -8 12 -9 10 -4 -7 3
-12 1 -24 -5 -28 -5 -3 -10 0 -10 8 0 8 -7 20 -15 27 -12 10 -12 8 1 -18z"/>
<path d="M116 805 c-9 -26 -7 -32 5 -12 6 10 9 21 6 23 -2 3 -7 -2 -11 -11z"/>
<path d="M350 809 c0 -5 -4 -7 -10 -4 -6 4 -7 -1 -3 -11 4 -11 8 -13 11 -6 2
7 8 10 13 7 5 -4 6 1 3 9 -7 18 -14 21 -14 5z"/>
<path d="M481 809 c0 -9 6 -22 14 -29 10 -9 15 -9 15 -1 0 6 -4 11 -9 11 -5 0
-12 8 -14 18 -4 14 -5 14 -6 1z"/>
<path d="M1073 812 c10 -4 18 -11 18 -15 -2 -21 0 -27 10 -27 8 0 7 6 -2 17
-12 14 -12 16 2 11 9 -3 22 -2 30 2 10 7 9 9 -6 9 -11 -1 -31 2 -45 5 -17 5
-19 4 -7 -2z"/>
<path d="M1322 800 c0 -14 2 -19 5 -12 2 6 2 18 0 25 -3 6 -5 1 -5 -13z"/>
<path d="M136 794 c-4 -9 -4 -19 -1 -22 2 -3 7 3 11 12 4 9 4 19 1 22 -2 3 -7
-3 -11 -12z"/>
<path d="M420 799 c0 -5 5 -7 10 -4 6 3 10 8 10 11 0 2 -4 4 -10 4 -5 0 -10
-5 -10 -11z"/>
<path d="M1174 799 c-3 -6 -2 -15 2 -19 12 -12 38 5 30 19 -9 14 -23 14 -32 0z
m26 -3 c0 -3 -4 -8 -10 -11 -5 -3 -10 -1 -10 4 0 6 5 11 10 11 6 0 10 -2 10
-4z"/>
<path d="M1235 799 c-4 -6 -4 -13 -1 -16 3 -4 6 -1 6 5 0 7 4 12 10 12 5 0 7
-8 3 -17 -5 -14 -3 -15 7 -6 7 6 9 16 6 22 -9 14 -23 14 -31 0z"/>
<path d="M460 794 c0 -6 3 -14 8 -18 4 -4 7 -11 7 -14 1 -15 26 -52 36 -52 5
0 1 10 -10 22 -11 11 -19 24 -17 27 3 3 -2 15 -10 26 -8 10 -14 14 -14 9z"/>
<path d="M1140 790 c-8 -5 -12 -12 -9 -15 4 -3 12 1 19 10 14 17 11 19 -10 5z"/>
<path d="M174 779 c-7 -12 31 -49 51 -48 6 0 2 6 -7 13 -10 7 -15 15 -13 18 3
3 -1 11 -9 17 -11 9 -16 9 -22 0z m21 -9 c3 -5 1 -10 -4 -10 -6 0 -11 5 -11
10 0 6 2 10 4 10 3 0 8 -4 11 -10z"/>
<path d="M432 781 c-11 -6 -10 -10 4 -15 9 -3 19 -4 22 -1 3 3 0 5 -7 5 -7 0
-9 5 -6 10 7 12 4 12 -13 1z"/>
<path d="M1297 783 c-13 -12 -7 -22 19 -36 25 -13 25 -15 9 -31 -10 -9 -20
-14 -23 -11 -4 3 0 10 8 15 9 6 10 10 3 10 -21 0 -26 -22 -8 -38 10 -10 15
-11 11 -4 -4 6 -2 13 3 13 6 1 15 2 20 3 5 0 13 5 18 10 5 6 2 6 -6 1 -11 -6
-13 -4 -8 9 4 10 1 19 -8 22 -8 4 -12 10 -9 15 3 5 -2 6 -11 3 -11 -5 -14 -2
-9 10 6 17 2 21 -9 9z"/>
<path d="M1350 780 c-11 -7 -11 -10 -2 -10 8 0 10 -5 6 -12 -4 -7 -3 -9 1 -5
7 6 17 37 12 37 -1 0 -9 -5 -17 -10z"/>
<path d="M1070 769 c0 -5 -5 -7 -11 -3 -8 4 -8 0 0 -15 7 -11 16 -21 22 -21 6
0 8 -4 5 -9 -3 -5 1 -14 8 -21 16 -12 56 2 56 20 0 6 8 10 17 10 9 0 14 3 10
6 -8 9 -48 -6 -42 -16 3 -4 -2 -11 -11 -14 -20 -8 -24 -8 -22 2 3 15 -15 42
-24 36 -6 -4 -8 2 -3 15 3 11 4 21 1 21 -3 0 -6 -5 -6 -11z"/>
<path d="M93 750 c2 -11 7 -23 12 -27 4 -5 4 -2 0 6 -6 11 -4 13 9 8 9 -4 15
-3 11 2 -3 5 1 12 7 15 7 3 2 3 -11 0 -16 -4 -21 -3 -17 5 4 6 2 11 -3 11 -6
0 -10 -9 -8 -20z"/>
<path d="M1146 762 c-2 -4 4 -8 14 -8 10 0 16 4 14 8 -3 4 -9 8 -14 8 -5 0
-11 -4 -14 -8z"/>
<path d="M1210 760 c0 -5 10 -14 21 -21 13 -6 19 -7 15 -1 -3 6 0 13 6 16 7 3
2 3 -11 0 -16 -4 -21 -3 -17 5 4 6 2 11 -3 11 -6 0 -11 -4 -11 -10z"/>
<path d="M1270 765 c0 -5 5 -17 10 -25 5 -8 10 -10 10 -5 0 6 -5 17 -10 25 -5
8 -10 11 -10 5z"/>
<path d="M508 753 c6 -2 10 -9 7 -14 -4 -5 1 -6 10 -2 13 5 14 7 3 14 -7 5
-17 8 -23 8 -5 0 -4 -3 3 -6z"/>
<path d="M1108 753 c6 -2 9 -10 6 -15 -4 -7 -2 -8 4 -4 18 11 14 26 -5 25 -11
0 -13 -3 -5 -6z"/>
<path d="M1193 749 c3 -9 -1 -26 -9 -38 -8 -11 -11 -21 -7 -21 5 0 14 9 21 20
9 15 10 25 2 38 -10 14 -11 15 -7 1z"/>
<path d="M145 740 c-3 -5 -4 -14 -1 -19 4 -5 1 -12 -4 -14 -6 -3 -5 -4 2 -3 7
2 12 11 10 21 -2 10 1 14 7 10 6 -3 11 -1 11 4 0 14 -17 14 -25 1z"/>
<path d="M242 730 c-7 -12 -10 -25 -7 -30 5 -8 -30 -34 -47 -35 -3 0 -9 -3
-13 -7 -10 -10 16 -3 48 12 19 9 26 19 22 31 -5 16 -3 16 24 6 16 -6 27 -15
24 -20 -3 -4 -12 -6 -20 -3 -8 3 -11 1 -8 -4 3 -6 1 -10 -4 -10 -6 0 -11 -5
-11 -11 0 -6 13 -1 29 11 18 12 32 16 36 10 3 -5 11 -10 17 -10 6 0 -1 9 -15
20 -14 11 -30 20 -37 20 -6 0 -8 4 -5 10 4 6 -1 7 -12 3 -16 -6 -16 -5 -4 10
7 9 9 17 5 17 -5 0 -15 -9 -22 -20z"/>
<path d="M450 743 c0 -7 4 -13 8 -13 5 0 14 -10 20 -22 6 -13 11 -18 11 -12 1
7 -8 22 -19 35 -10 13 -19 18 -20 12z"/>
<path d="M302 733 c-8 -3 -4 -12 13 -25 14 -11 29 -18 32 -14 3 3 -2 8 -11 12
-9 3 -14 10 -11 14 7 11 -7 19 -23 13z"/>
<path d="M1252 724 c-7 -8 -8 -14 -3 -14 10 0 25 19 20 25 -2 1 -10 -3 -17
-11z"/>
<path d="M166 706 c-11 -18 -13 -27 -4 -32 6 -4 8 -3 5 3 -4 5 3 20 14 31 11
12 16 22 11 22 -6 0 -17 -11 -26 -24z"/>
<path d="M360 720 c-8 -5 -10 -10 -5 -10 6 0 17 5 25 10 8 5 11 10 5 10 -5 0
-17 -5 -25 -10z"/>
<path d="M1035 720 c-3 -5 -2 -10 4 -10 5 0 13 5 16 10 3 6 2 10 -4 10 -5 0
-13 -4 -16 -10z"/>
<path d="M195 700 c3 -6 1 -10 -6 -10 -7 0 -10 -3 -6 -6 3 -3 13 -2 22 4 16 8
16 9 1 15 -10 4 -15 3 -11 -3z"/>
<path d="M439 692 c-13 -15 -12 -16 4 -3 11 9 17 10 17 2 0 -6 -12 -16 -26
-22 -15 -5 -24 -12 -21 -16 8 -7 57 24 57 37 0 18 -18 19 -31 2z"/>
<path d="M509 691 c-18 -14 -21 -23 -13 -31 8 -8 15 -6 25 7 13 16 12 17 -3 4
-12 -9 -18 -10 -18 -2 0 6 11 16 25 21 14 5 25 12 25 15 0 11 -19 4 -41 -14z"/>
<path d="M1054 699 c-7 -12 31 -49 51 -48 6 0 2 6 -7 13 -10 7 -15 15 -13 18
3 3 -1 11 -9 17 -11 9 -16 9 -22 0z m21 -9 c3 -5 1 -10 -4 -10 -6 0 -11 5 -11
10 0 6 2 10 4 10 3 0 8 -4 11 -10z"/>
<path d="M1230 681 c12 -18 16 -32 10 -36 -5 -3 -10 -11 -10 -17 0 -6 9 1 21
16 17 21 19 30 9 41 -7 8 -16 12 -21 9 -5 -3 -9 0 -9 5 0 6 -5 11 -11 11 -6 0
-1 -13 11 -29z m30 -12 c0 -6 -4 -7 -10 -4 -5 3 -10 11 -10 16 0 6 5 7 10 4 6
-3 10 -11 10 -16z"/>
<path d="M1270 705 c0 -5 5 -17 10 -25 5 -8 10 -10 10 -5 0 6 -5 17 -10 25 -5
8 -10 11 -10 5z"/>
<path d="M366 681 c4 -16 3 -21 -5 -17 -6 4 -11 2 -11 -3 0 -19 19 -12 31 10
6 13 7 19 1 15 -6 -3 -13 0 -16 6 -3 7 -3 2 0 -11z"/>
<path d="M1150 691 c0 -7 -4 -9 -10 -6 -6 4 -7 -1 -3 -11 6 -15 7 -15 15 1 6
9 7 19 4 22 -3 4 -6 1 -6 -6z"/>
<path d="M552 684 c4 -4 -4 -15 -17 -26 -14 -11 -25 -24 -25 -31 0 -6 7 -2 16
9 15 18 15 18 8 -5 -4 -17 -3 -21 6 -16 6 4 9 16 7 27 -4 12 -1 18 6 15 7 -3
11 -10 9 -16 -1 -7 2 -10 8 -6 8 5 8 11 0 20 -8 10 -8 14 2 17 7 3 5 7 -7 12
-11 4 -16 4 -13 0z"/>
<path d="M1190 680 c-12 -8 -12 -10 -1 -10 12 0 12 -3 -1 -17 -8 -10 -18 -25
-22 -33 -4 -8 2 -3 14 13 24 31 42 36 34 10 -5 -15 -4 -16 5 -3 8 11 7 18 -4
26 -8 6 -12 14 -8 17 9 10 0 8 -17 -3z"/>
<path d="M1330 679 c0 -5 5 -7 10 -4 6 3 10 8 10 11 0 2 -4 4 -10 4 -5 0 -10
-5 -10 -11z"/>
<path d="M299 668 c-7 -17 -6 -57 2 -52 5 3 7 15 4 27 -6 21 -5 21 14 -2 13
-14 21 -18 21 -10 0 12 -38 45 -41 37z"/>
<path d="M470 664 c0 -6 5 -15 11 -21 7 -7 6 -12 -5 -16 -10 -4 -16 -1 -16 8
0 18 -16 20 -26 3 -4 -7 -4 -10 1 -6 4 4 13 1 19 -7 9 -13 14 -13 28 -3 15 12
15 15 3 32 -8 11 -15 15 -15 10z"/>
<path d="M590 659 c0 -5 5 -7 10 -4 6 3 10 3 10 -2 0 -14 -17 -35 -26 -33 -21
4 -13 -21 10 -31 26 -12 27 -33 1 -22 -17 6 -19 -5 -6 -25 7 -11 9 -11 14 2 4
9 13 13 20 10 15 -5 58 40 56 60 0 7 -3 6 -6 -2 -2 -6 -9 -10 -14 -7 -5 4 -6
-2 -2 -12 6 -16 5 -17 -13 -3 -17 14 -18 13 -7 -1 13 -16 8 -29 -9 -29 -5 0
-6 5 -3 10 3 6 0 13 -8 16 -8 3 -14 13 -12 22 2 9 4 21 4 25 1 5 6 5 12 1 8
-4 8 0 0 15 -12 22 -31 29 -31 10z m5 -49 c3 -5 1 -10 -4 -10 -6 0 -11 5 -11
10 0 6 2 10 4 10 3 0 8 -4 11 -10z"/>
<path d="M1036 654 c-3 -9 -2 -22 2 -31 6 -10 9 -5 9 16 0 35 -2 38 -11 15z"/>
<path d="M1156 655 c-9 -26 -7 -32 5 -12 6 10 9 21 6 23 -2 3 -7 -2 -11 -11z"/>
<path d="M1295 660 c-8 -13 3 -30 18 -30 7 0 6 4 -3 10 -8 5 -12 12 -8 15 3 3
13 -1 22 -10 9 -9 16 -12 16 -6 0 16 -37 33 -45 21z"/>
<path d="M234 648 c3 -10 1 -20 -4 -23 -5 -3 -11 3 -13 12 -4 16 -5 16 -6 1
-1 -21 11 -29 28 -19 11 7 11 13 1 27 -9 16 -11 16 -6 2z"/>
<path d="M271 634 c0 -11 3 -14 6 -6 3 7 2 16 -1 19 -3 4 -6 -2 -5 -13z"/>
<path d="M374 638 c-4 -6 -3 -8 4 -4 5 3 13 0 15 -6 3 -8 6 -6 6 5 1 19 -14
23 -25 5z"/>
<path d="M1060 641 c0 -6 5 -13 11 -17 8 -4 7 -9 -2 -15 -8 -5 -9 -9 -3 -9 5
0 18 6 29 13 14 11 15 16 5 22 -9 6 -11 4 -5 -5 5 -8 3 -11 -6 -8 -8 3 -13 11
-11 17 1 6 -2 11 -8 11 -5 0 -10 -4 -10 -9z"/>
<path d="M1123 636 c3 -7 0 -20 -6 -27 -8 -8 -5 -8 7 1 17 13 19 13 14 0 -3
-8 -15 -15 -27 -14 -15 0 -19 -2 -11 -10 7 -7 16 -7 30 2 15 9 20 9 20 0 0 -6
3 -9 6 -6 3 4 0 17 -7 30 -7 12 -12 26 -11 31 1 4 -3 7 -9 7 -6 0 -9 -6 -6
-14z"/>
<path d="M1270 645 c0 -5 5 -17 10 -25 5 -8 10 -10 10 -5 0 6 -5 17 -10 25 -5
8 -10 11 -10 5z"/>
<path d="M636 625 c-11 -8 -16 -15 -10 -15 5 0 18 7 28 15 11 8 16 15 10 15
-5 0 -18 -7 -28 -15z"/>
<path d="M354 622 c3 -6 3 -12 -1 -15 -5 -2 -2 -2 5 -1 6 2 12 -1 12 -6 0 -6
5 -10 10 -10 17 0 11 14 -11 28 -12 8 -18 9 -15 4z"/>
<path d="M410 621 c0 -6 5 -11 11 -11 5 0 8 -4 5 -9 -3 -5 1 -14 10 -22 12
-10 18 -9 32 7 9 10 13 15 8 12 -5 -4 -22 2 -37 13 -16 11 -29 16 -29 10z m45
-31 c3 -5 2 -10 -4 -10 -5 0 -13 5 -16 10 -3 6 -2 10 4 10 5 0 13 -4 16 -10z"/>
<path d="M1195 621 c3 -5 0 -11 -7 -13 -7 -3 -5 -7 6 -11 9 -4 15 -3 11 2 -3
5 0 11 7 13 7 3 5 7 -6 11 -9 4 -15 3 -11 -2z"/>
<path d="M1253 616 c6 -14 3 -17 -10 -12 -10 4 -14 4 -10 0 4 -4 0 -12 -8 -18
-11 -8 -12 -15 -4 -26 9 -13 10 -13 6 1 -4 11 3 20 19 28 26 12 31 26 12 37
-8 5 -9 2 -5 -10z"/>
<path d="M1304 606 c-14 -11 -16 -18 -8 -26 9 -9 14 -9 19 1 5 8 4 10 -3 5
-19 -11 -14 5 6 20 9 7 14 14 11 14 -3 0 -14 -6 -25 -14z"/>
<path d="M253 590 c2 -11 7 -23 12 -27 4 -5 4 -2 0 6 -6 11 -4 13 9 8 9 -4 15
-3 11 2 -3 5 1 12 7 15 7 3 2 3 -11 0 -16 -4 -21 -3 -17 5 4 6 2 11 -3 11 -6
0 -10 -9 -8 -20z"/>
<path d="M315 601 c3 -5 0 -13 -6 -16 -5 -4 -8 -13 -5 -20 3 -8 2 -16 -2 -18
-4 -2 0 -2 8 1 8 3 23 4 32 4 23 -1 34 18 17 29 -9 6 -18 3 -26 -8 -7 -9 -16
-13 -20 -10 -4 4 -1 13 5 19 15 15 15 28 1 28 -5 0 -8 -4 -4 -9z m40 -31 c3
-5 1 -10 -4 -10 -6 0 -11 5 -11 10 0 6 2 10 4 10 3 0 8 -4 11 -10z"/>
<path d="M490 600 c0 -5 10 -14 21 -21 13 -6 19 -7 15 -1 -3 6 0 13 6 16 7 3
2 3 -11 0 -16 -4 -21 -3 -17 5 4 6 2 11 -3 11 -6 0 -11 -4 -11 -10z"/>
<path d="M388 571 c-16 -29 -14 -41 6 -41 6 0 5 4 -3 9 -9 6 -10 11 -2 15 6 4
14 0 17 -8 3 -9 11 -16 16 -16 6 0 4 8 -3 17 -12 15 -12 16 4 10 11 -4 16 -3
12 4 -4 6 -14 8 -22 5 -11 -4 -13 -1 -8 14 9 28 3 25 -17 -9z"/>
<path d="M690 591 c0 -5 5 -13 10 -16 6 -3 10 -2 10 4 0 5 -4 13 -10 16 -5 3
-10 2 -10 -4z"/>
<path d="M1038 592 c0 -4 -2 -12 -2 -17 -2 -18 -33 -55 -40 -48 -4 4 -4 -1 0
-12 5 -11 9 -14 12 -7 2 7 8 10 13 7 5 -4 6 0 3 8 -9 24 29 15 44 -10 14 -25
27 -29 38 -11 5 8 2 9 -10 5 -14 -6 -17 -3 -12 8 3 9 2 14 -3 11 -5 -3 -11 1
-15 9 -3 9 -12 12 -23 8 -14 -5 -16 -3 -6 7 6 7 9 20 5 29 -5 14 -4 14 11 2 9
-7 17 -9 17 -3 0 11 -29 25 -32 14z"/>
<path d="M540 569 c-13 -24 2 -50 29 -48 12 1 11 2 -3 6 -15 4 -16 7 -5 15 11
8 10 8 -5 4 -14 -5 -17 -2 -12 10 3 8 6 18 6 20 0 3 5 2 10 -1 6 -3 10 -1 10
4 0 18 -19 12 -30 -10z"/>
<path d="M1166 574 c-5 -14 -4 -15 9 -4 17 14 19 20 6 20 -5 0 -12 -7 -15 -16z"/>
<path d="M1276 570 c5 -20 4 -23 -7 -12 -21 19 -31 14 -11 -6 13 -14 19 -15
25 -5 4 7 3 21 -3 31 -9 14 -10 13 -4 -8z"/>
<path d="M467 565 c-16 -11 -16 -13 -2 -19 9 -3 14 -2 10 3 -3 5 1 11 7 14 7
2 11 7 8 10 -3 3 -13 0 -23 -8z"/>
<path d="M1077 566 c-4 -9 -3 -15 2 -11 5 3 11 0 13 -7 3 -7 7 -5 11 6 4 9 3
15 -2 11 -5 -3 -11 0 -13 7 -3 7 -7 5 -11 -6z"/>
<path d="M660 555 c-10 -12 -8 -17 13 -26 17 -8 23 -17 20 -27 -4 -10 -2 -13
5 -8 19 11 14 26 -13 38 -26 12 -25 31 2 21 11 -4 14 -3 9 5 -10 16 -21 15
-36 -3z"/>
<path d="M716 554 c-9 -24 -2 -26 12 -4 7 11 8 20 3 20 -5 0 -12 -7 -15 -16z"/>
<path d="M1130 560 c0 -5 5 -10 10 -10 6 0 10 5 10 10 0 6 -4 10 -10 10 -5 0
-10 -4 -10 -10z"/>
<path d="M1190 561 c0 -5 5 -13 10 -16 6 -3 10 -2 10 4 0 5 -4 13 -10 16 -5 3
-10 2 -10 -4z"/>
<path d="M490 541 c0 -5 9 -19 19 -32 14 -18 23 -21 31 -13 8 8 6 15 -7 25
-16 13 -17 12 -4 -3 9 -12 10 -18 2 -18 -6 0 -16 11 -21 25 -9 25 -20 33 -20
16z"/>
<path d="M1114 542 c3 -5 0 -13 -6 -15 -8 -3 -6 -6 5 -6 19 -1 23 14 5 25 -6
4 -8 3 -4 -4z"/>
<path d="M1146 525 c-20 -30 -21 -47 -1 -21 8 11 15 16 15 12 0 -5 7 -3 15 4
14 12 12 30 -4 30 -5 0 -16 -11 -25 -25z m34 11 c0 -3 -4 -8 -10 -11 -5 -3
-10 -1 -10 4 0 6 5 11 10 11 6 0 10 -2 10 -4z"/>
<path d="M1232 541 c-11 -6 -10 -10 4 -15 9 -3 19 -4 22 -1 3 3 0 5 -7 5 -7 0
-9 5 -6 10 7 12 4 12 -13 1z"/>
<path d="M1287 530 c-9 -11 -13 -20 -7 -20 5 0 14 9 20 20 6 11 9 20 8 20 -2
0 -11 -9 -21 -20z"/>
<path d="M327 521 c-4 -17 -3 -21 5 -13 5 5 8 16 6 23 -3 8 -7 3 -11 -10z"/>
<path d="M354 532 c4 -7 2 -21 -5 -30 -12 -15 -11 -15 6 0 16 15 17 20 6 30
-11 11 -13 10 -7 0z"/>
<path d="M441 535 c0 -5 3 -16 8 -23 7 -11 9 -10 14 3 4 9 3 14 -2 10 -5 -3
-12 1 -14 7 -3 7 -6 9 -6 3z"/>
<path d="M606 524 c-4 -9 -4 -19 -1 -22 3 -3 5 0 5 7 0 7 4 9 10 6 6 -3 7 1 4
9 -8 20 -10 20 -18 0z"/>
<path d="M1184 509 c-16 -18 -16 -20 0 -38 13 -14 14 -20 5 -23 -8 -3 -6 -7 6
-12 11 -4 16 -4 12 0 -4 4 0 12 8 18 11 8 12 15 4 26 -9 13 -10 12 -5 -2 6
-21 -5 -23 -22 -6 -13 13 -17 32 -4 24 4 -2 15 2 25 9 14 10 15 14 3 18 -8 3
-22 -3 -32 -14z"/>
<path d="M379 499 c-13 -11 -18 -17 -10 -13 11 5 13 3 8 -9 -4 -12 2 -21 21
-31 15 -8 26 -18 24 -22 -2 -5 1 -10 7 -12 6 -2 16 8 22 22 13 28 32 26 23 -2
-5 -14 -4 -15 5 -2 15 20 14 27 -4 34 -10 4 -20 -3 -27 -19 -6 -14 -15 -25
-20 -25 -5 0 -7 4 -3 10 3 5 -5 15 -17 22 -26 15 -36 53 -11 44 8 -3 12 -2 8
3 -3 5 1 12 7 14 8 4 9 6 2 6 -7 1 -22 -8 -35 -20z"/>
<path d="M475 510 c-3 -5 -1 -10 4 -10 6 0 11 5 11 10 0 6 -2 10 -4 10 -3 0
-8 -4 -11 -10z"/>
<path d="M637 502 c-30 -18 -31 -36 -1 -39 18 -3 18 -3 0 5 -17 8 -17 10 10
30 35 26 30 28 -9 4z"/>
<path d="M1025 495 c-11 -14 -27 -26 -35 -29 -12 -3 -11 -4 2 -5 17 -1 58 35
58 51 0 12 -3 10 -25 -17z"/>
<path d="M418 488 c-20 -20 -10 -25 11 -5 11 10 12 7 7 -13 -6 -21 -5 -22 4
-7 6 9 7 23 3 30 -6 10 -12 9 -25 -5z"/>
<path d="M562 494 c-11 -12 -11 -18 -2 -29 7 -8 18 -15 24 -15 6 0 3 6 -6 14
-16 12 -16 14 0 29 9 9 12 17 7 17 -6 -1 -16 -8 -23 -16z"/>
<path d="M717 495 c-6 -15 37 -56 57 -54 6 0 6 3 -2 6 -10 4 -10 8 0 21 10 14
10 15 -2 5 -20 -18 -35 -16 -20 2 9 10 9 15 1 15 -6 0 -11 -5 -11 -11 0 -5 -4
-8 -10 -4 -5 3 -7 12 -3 20 3 8 3 15 0 15 -3 0 -7 -7 -10 -15z"/>
<path d="M1250 505 c0 -3 10 -16 21 -28 l21 -22 -11 22 c-11 22 -31 40 -31 28z"/>
<path d="M670 489 c0 -5 -5 -7 -11 -3 -8 4 -8 0 0 -15 14 -25 23 -28 14 -4 -4
11 -3 14 5 9 8 -5 10 -2 6 8 -7 18 -14 21 -14 5z"/>
<path d="M1230 492 c0 -6 5 -14 10 -17 6 -4 2 -18 -10 -36 -12 -16 -17 -29
-11 -29 6 0 11 5 11 11 0 5 4 8 9 5 5 -3 14 1 21 9 10 11 8 20 -9 41 -12 15
-21 22 -21 16z m22 -54 c-7 -7 -12 -8 -12 -2 0 14 12 26 19 19 2 -3 -1 -11 -7
-17z"/>
<path d="M490 480 c0 -5 11 -12 25 -16 14 -3 22 -10 19 -16 -3 -5 -13 -7 -21
-4 -8 3 -11 1 -8 -4 3 -6 1 -10 -4 -10 -6 0 -11 -5 -11 -11 0 -6 13 -1 29 11
18 12 32 16 36 10 3 -5 11 -10 17 -10 6 0 -1 9 -15 20 -14 11 -30 20 -36 20
-6 0 -11 5 -11 10 0 6 -4 10 -10 10 -5 0 -10 -4 -10 -10z"/>
<path d="M1060 480 c8 -5 20 -10 25 -10 6 0 3 5 -5 10 -8 5 -19 10 -25 10 -5
0 -3 -5 5 -10z"/>
<path d="M1114 481 c3 -5 -1 -12 -10 -15 -15 -6 -15 -8 0 -30 12 -19 12 -26 3
-30 -6 -3 -2 -3 10 -1 12 3 24 1 28 -5 8 -13 25 -13 25 0 0 6 -3 9 -7 8 -14
-4 -50 21 -57 38 -5 12 -2 15 9 10 9 -3 14 -2 10 3 -3 5 0 11 7 13 7 3 5 7 -6
11 -9 4 -15 3 -12 -2z"/>
<path d="M689 446 c-8 -16 -17 -23 -28 -19 -13 5 -14 4 -3 -8 11 -12 15 -11
26 3 9 12 16 14 23 7 7 -7 17 -8 26 -3 13 8 11 12 -9 27 -24 18 -24 17 -35 -7z
m37 -13 c-7 -7 -26 7 -26 19 0 6 6 6 15 -2 9 -7 13 -15 11 -17z"/>
<path d="M790 460 c0 -5 5 -10 10 -10 6 0 10 -6 10 -14 0 -7 7 -19 15 -26 8
-7 12 -17 9 -22 -4 -6 -10 -4 -16 6 -10 19 -28 21 -28 4 0 -6 3 -8 7 -5 3 4
11 0 17 -8 7 -10 16 -12 25 -6 11 7 12 13 3 23 -9 11 -9 17 0 26 9 9 9 15 -1
25 -10 10 -11 9 -6 -4 4 -10 2 -20 -3 -23 -6 -3 -13 5 -16 19 -6 24 -26 36
-26 15z"/>
<path d="M1035 459 c-4 -6 -4 -13 -1 -16 3 -4 6 -1 6 5 0 7 5 12 10 12 7 0 7
-7 0 -22 -10 -21 -10 -21 3 -6 8 10 18 14 23 10 4 -4 2 1 -5 11 -15 20 -27 22
-36 6z"/>
<path d="M1139 449 c-6 -13 -7 -19 -1 -15 6 3 13 0 16 -6 3 -7 3 -2 0 11 -4
16 -3 21 5 17 6 -4 11 -2 11 3 0 19 -19 12 -31 -10z"/>
<path d="M606 441 c4 -16 3 -21 -5 -17 -6 4 -11 2 -11 -3 0 -19 19 -12 31 10
6 13 7 19 1 15 -6 -3 -13 0 -16 6 -3 7 -3 2 0 -11z"/>
<path d="M990 436 c7 -7 13 -7 20 0 6 6 3 10 -10 10 -13 0 -16 -4 -10 -10z"/>
<path d="M780 430 c-8 -5 -12 -12 -9 -15 4 -3 12 1 19 10 14 17 11 19 -10 5z"/>
<path d="M535 419 c-3 -5 -1 -17 5 -26 9 -15 10 -15 5 5 -7 23 -7 24 19 6 15
-9 28 -15 31 -13 2 3 -9 12 -25 21 -17 10 -32 13 -35 7z"/>
<path d="M857 424 c-9 -9 16 -44 31 -44 10 0 9 -7 -4 -29 -10 -17 -20 -28 -24
-26 -3 2 -7 -6 -7 -18 -2 -21 -1 -22 13 -3 8 11 14 25 14 30 0 6 7 2 15 -8 8
-11 15 -15 15 -9 0 7 -5 15 -10 18 -7 4 -7 12 0 25 8 14 4 21 -17 35 -20 14
-23 19 -12 26 8 5 9 9 3 9 -6 0 -13 -3 -17 -6z"/>
<path d="M960 415 c-11 -13 -11 -18 0 -28 10 -10 12 -9 7 5 -3 10 -2 20 3 23
6 4 10 2 10 -4 0 -5 7 -17 16 -25 16 -17 34 -13 34 7 0 8 -3 8 -9 -2 -6 -9
-11 -10 -15 -2 -4 6 0 14 8 17 9 3 16 11 16 17 0 6 -8 4 -17 -5 -15 -15 -18
-16 -28 -2 -10 14 -12 14 -25 -1z"/>
<path d="M1070 420 c0 -5 5 -10 10 -10 6 0 10 5 10 10 0 6 -4 10 -10 10 -5 0
-10 -4 -10 -10z"/>
<path d="M1175 420 c3 -5 11 -10 16 -10 6 0 7 5 4 10 -3 6 -11 10 -16 10 -6 0
-7 -4 -4 -10z"/>
<path d="M754 388 c3 -26 -1 -38 -11 -43 -12 -4 -13 -8 -3 -20 7 -8 16 -13 20
-10 4 3 11 -2 14 -10 8 -21 46 -1 45 23 -1 15 -2 15 -6 0 -6 -22 -33 -32 -33
-12 0 10 -6 14 -15 11 -26 -11 -25 10 1 22 24 11 30 34 9 31 -6 -1 -13 9 -17
22 -5 16 -6 12 -4 -14z m26 -18 c0 -5 -5 -10 -11 -10 -5 0 -7 5 -4 10 3 6 8
10 11 10 2 0 4 -4 4 -10z"/>
<path d="M445 400 c-3 -6 1 -7 10 -4 10 4 14 1 12 -7 -2 -8 -2 -11 0 -6 3 4 9
5 14 1 5 -3 9 -1 9 4 0 6 -7 13 -16 16 -21 8 -22 8 -29 -4z"/>
<path d="M640 390 c11 -11 22 -20 25 -20 3 0 0 9 -7 20 -7 11 -18 20 -25 20
-8 0 -5 -8 7 -20z"/>
<path d="M690 404 c0 -8 32 -33 43 -34 4 0 -2 9 -13 20 -21 21 -30 25 -30 14z"/>
<path d="M1050 400 c8 -5 20 -10 25 -10 6 0 3 5 -5 10 -8 5 -19 10 -25 10 -5
0 -3 -5 5 -10z"/>
<path d="M1250 403 c5 -2 10 -9 10 -14 0 -6 -4 -8 -8 -5 -5 3 -21 -6 -38 -20
-16 -14 -23 -23 -16 -19 6 3 12 1 12 -4 0 -6 5 -11 11 -11 8 0 8 5 -1 15 -15
18 -7 19 23 4 21 -10 21 -10 3 5 -19 16 -19 17 7 20 16 1 16 29 -1 32 -7 1 -8
0 -2 -3z"/>
<path d="M1182 384 c-12 -8 -20 -19 -17 -24 3 -4 -1 -10 -7 -13 -7 -2 -10 -8
-5 -12 8 -10 38 26 31 37 -3 5 2 8 10 8 9 0 16 5 16 10 0 13 -2 13 -28 -6z"/>
<path d="M506 375 c-11 -8 -16 -18 -11 -22 4 -5 10 -3 12 4 2 7 10 11 16 9 7
-1 9 -1 4 1 -4 3 -5 9 -1 14 7 12 2 11 -20 -6z"/>
<path d="M556 375 c-9 -26 -7 -32 5 -12 6 10 9 21 6 23 -2 3 -7 -2 -11 -11z"/>
<path d="M589 371 c-18 -14 -21 -23 -13 -31 8 -8 15 -6 25 7 13 16 12 17 -3 4
-12 -9 -18 -10 -18 -2 0 6 11 16 25 21 14 5 25 12 25 15 0 11 -19 4 -41 -14z"/>
<path d="M1045 360 c0 -15 3 -26 8 -23 4 2 7 13 7 23 0 10 -3 21 -7 23 -5 3
-8 -8 -8 -23z"/>
<path d="M1096 378 c3 -5 14 -6 25 -3 14 5 17 3 13 -9 -3 -9 -12 -16 -19 -16
-8 0 -17 -4 -20 -10 -11 -18 15 -10 35 10 25 25 19 38 -15 38 -13 0 -22 -5
-19 -10z"/>
<path d="M681 375 c0 -5 3 -16 8 -23 7 -11 9 -10 14 3 4 9 3 14 -2 10 -5 -3
-12 1 -14 7 -3 7 -6 9 -6 3z"/>
<path d="M1074 360 c0 -13 4 -16 10 -10 7 7 7 13 0 20 -6 6 -10 3 -10 -10z"/>
<path d="M632 364 c4 -4 -4 -15 -17 -26 -14 -11 -25 -24 -25 -31 0 -6 7 -2 16
9 15 18 15 18 8 -5 -4 -17 -3 -21 6 -16 6 4 10 16 7 26 -7 27 12 24 23 -3 6
-17 9 -18 9 -6 1 9 -4 20 -10 24 -8 5 -8 9 1 14 8 5 6 9 -6 14 -10 4 -15 4
-12 0z"/>
<path d="M796 355 c-9 -26 -7 -32 5 -12 6 10 9 21 6 23 -2 3 -7 -2 -11 -11z"/>
<path d="M850 360 c0 -5 -6 -8 -12 -6 -7 1 -10 1 -5 -1 4 -3 4 -9 1 -15 -3 -5
3 -4 15 4 22 14 28 28 11 28 -5 0 -10 -4 -10 -10z"/>
<path d="M970 360 c0 -5 5 -10 10 -10 6 0 10 5 10 10 0 6 -4 10 -10 10 -5 0
-10 -4 -10 -10z"/>
<path d="M523 343 c-7 -3 -13 -9 -13 -15 0 -6 7 -4 17 3 15 12 16 12 10 -4 -4
-11 -5 -23 -2 -27 9 -14 35 0 35 18 0 13 -3 12 -16 -4 -15 -19 -15 -18 -9 3 6
23 -2 33 -22 26z"/>
<path d="M670 344 c0 -6 7 -17 15 -24 8 -7 15 -9 15 -4 0 5 5 2 10 -6 8 -13
10 -12 10 4 0 12 -5 16 -15 12 -8 -3 -19 2 -24 12 -6 9 -11 12 -11 6z"/>
<path d="M1060 319 c0 -5 5 -7 10 -4 6 3 10 8 10 11 0 2 -4 4 -10 4 -5 0 -10
-5 -10 -11z"/>
<path d="M1120 319 c0 -5 5 -7 10 -4 6 3 10 8 10 11 0 2 -4 4 -10 4 -5 0 -10
-5 -10 -11z"/>
<path d="M1180 319 c0 -5 5 -7 10 -4 6 3 10 8 10 11 0 2 -4 4 -10 4 -5 0 -10
-5 -10 -11z"/>
<path d="M1240 321 c0 -7 -4 -9 -10 -6 -6 4 -7 -1 -3 -11 6 -15 7 -15 15 1 6
9 7 19 4 22 -3 4 -6 1 -6 -6z"/>
<path d="M1160 310 c0 -5 -5 -9 -11 -7 -23 5 -20 -23 4 -34 17 -8 24 -17 20
-28 -4 -14 -3 -14 6 -1 8 11 7 18 -3 25 -7 6 -11 20 -10 33 2 12 2 22 -1 22
-3 0 -5 -4 -5 -10z m-5 -20 c3 -5 1 -10 -4 -10 -6 0 -11 5 -11 10 0 6 2 10 4
10 3 0 8 -4 11 -10z"/>
<path d="M674 302 c3 -6 3 -12 -1 -15 -5 -2 -2 -2 5 -1 6 2 12 -1 12 -6 0 -6
5 -10 10 -10 17 0 11 14 -11 28 -12 8 -18 9 -15 4z"/>
<path d="M730 301 c0 -6 5 -11 11 -11 5 0 8 -4 5 -9 -3 -5 1 -14 10 -22 12
-10 18 -9 32 7 9 10 13 15 8 12 -5 -4 -22 2 -37 13 -16 11 -29 16 -29 10z m45
-31 c3 -5 2 -10 -4 -10 -5 0 -13 5 -16 10 -3 6 -2 10 4 10 5 0 13 -4 16 -10z"/>
<path d="M1066 295 c-11 -8 -16 -18 -11 -22 4 -5 10 -3 12 4 2 7 10 11 16 9 7
-1 9 -1 4 1 -4 3 -5 9 -1 14 7 12 2 11 -20 -6z"/>
<path d="M1190 300 c-11 -7 -11 -10 -2 -10 7 0 10 -4 7 -10 -4 -6 1 -7 11 -3
11 4 13 8 6 11 -7 2 -10 8 -6 13 7 11 3 11 -16 -1z"/>
<path d="M573 270 c2 -11 7 -23 12 -27 4 -5 4 -2 0 6 -6 11 -4 13 9 8 9 -4 15
-3 11 2 -3 5 1 12 7 15 7 3 2 3 -11 0 -16 -4 -21 -3 -17 5 4 6 2 11 -3 11 -6
0 -10 -9 -8 -20z"/>
<path d="M635 281 c3 -5 0 -13 -6 -16 -5 -4 -8 -13 -5 -20 3 -8 2 -16 -2 -18
-4 -2 0 -2 8 1 8 3 23 4 32 4 23 -1 34 18 17 29 -9 6 -18 3 -26 -8 -7 -9 -16
-13 -20 -10 -4 4 -1 13 5 19 15 15 15 28 1 28 -5 0 -8 -4 -4 -9z m40 -31 c3
-5 1 -10 -4 -10 -6 0 -11 5 -11 10 0 6 2 10 4 10 3 0 8 -4 11 -10z"/>
<path d="M810 280 c0 -5 10 -14 21 -21 13 -6 19 -7 15 -1 -3 6 0 13 6 16 7 3
2 3 -11 0 -16 -4 -21 -3 -17 5 4 6 2 11 -3 11 -6 0 -11 -4 -11 -10z"/>
<path d="M1110 285 c0 -5 5 -17 10 -25 5 -8 10 -10 10 -5 0 6 -5 17 -10 25 -5
8 -10 11 -10 5z"/>
<path d="M708 251 c-16 -29 -14 -41 6 -41 6 0 5 4 -3 9 -9 6 -10 11 -2 15 6 4
14 0 17 -8 3 -9 11 -16 16 -16 6 0 4 8 -3 17 -12 15 -12 16 4 10 11 -4 16 -3
12 4 -4 6 -14 8 -22 5 -11 -4 -13 -1 -8 14 9 28 3 25 -17 -9z"/>
<path d="M859 249 c-15 -28 3 -46 22 -22 13 16 12 17 -3 4 -22 -17 -24 2 -2
23 8 9 11 16 5 16 -6 0 -15 -9 -22 -21z"/>
<path d="M1080 259 c-13 -9 -13 -10 2 -6 15 5 34 -17 30 -35 -3 -13 7 -9 28
12 11 11 16 20 11 20 -6 0 -13 -5 -17 -11 -5 -8 -12 -5 -23 9 -12 17 -19 19
-31 11z"/>
<path d="M1215 260 c3 -5 11 -10 16 -10 6 0 7 5 4 10 -3 6 -11 10 -16 10 -6 0
-7 -4 -4 -10z"/>
<path d="M787 245 c-16 -11 -16 -13 -2 -19 9 -3 14 -2 10 3 -3 5 1 11 7 14 7
2 11 7 8 10 -3 3 -13 0 -23 -8z"/>
<path d="M1197 243 c-4 -3 -7 -11 -7 -17 0 -6 5 -5 12 2 6 6 9 14 7 17 -3 3
-9 2 -12 -2z"/>
<path d="M810 221 c0 -5 9 -19 19 -32 20 -24 20 -24 38 -4 10 11 14 16 9 12
-5 -4 -16 -1 -25 6 -14 11 -14 10 -2 -5 9 -12 10 -18 2 -18 -6 0 -16 11 -21
25 -9 25 -20 33 -20 16z"/>
<path d="M1155 220 c3 -6 1 -10 -6 -10 -7 0 -10 -3 -6 -6 3 -3 13 -2 22 4 16
8 16 9 1 15 -10 4 -15 3 -11 -3z"/>
<path d="M647 201 c-4 -17 -3 -21 5 -13 5 5 8 16 6 23 -3 8 -7 3 -11 -10z"/>
<path d="M674 212 c4 -7 2 -21 -5 -30 -12 -15 -11 -15 6 0 16 15 17 20 6 30
-11 11 -13 10 -7 0z"/>
<path d="M761 215 c0 -5 3 -16 8 -23 7 -11 9 -10 14 3 4 9 3 14 -2 10 -5 -3
-12 1 -14 7 -3 7 -6 9 -6 3z"/>
<path d="M1190 200 c0 -6 7 -10 15 -10 8 0 15 2 15 4 0 2 -7 6 -15 10 -8 3
-15 1 -15 -4z"/>
<path d="M699 179 c-13 -11 -18 -17 -10 -13 11 5 13 3 8 -9 -4 -12 2 -21 21
-31 15 -8 26 -18 24 -22 -8 -21 19 -13 29 8 6 14 20 24 32 25 21 2 21 1 3 -12
-11 -8 -17 -17 -14 -20 8 -8 39 25 33 35 -10 17 -48 5 -58 -17 -6 -13 -14 -23
-19 -23 -5 0 -7 4 -3 10 3 5 -5 15 -17 22 -26 15 -36 53 -11 44 8 -3 12 -2 8
3 -3 5 1 12 7 14 8 4 9 6 2 6 -7 1 -22 -8 -35 -20z"/>
<path d="M795 190 c-3 -5 -1 -10 4 -10 6 0 11 5 11 10 0 6 -2 10 -4 10 -3 0
-8 -4 -11 -10z"/>
<path d="M738 168 c-20 -20 -10 -25 11 -5 11 10 12 7 7 -13 -6 -21 -5 -22 4
-7 6 9 7 23 3 30 -6 10 -12 9 -25 -5z"/>
<path d="M1146 178 c3 -4 12 -4 21 -1 12 5 14 3 8 -7 -5 -9 -4 -11 4 -6 16 10
4 25 -19 23 -10 -1 -17 -5 -14 -9z"/>
<path d="M820 160 c8 -5 20 -10 25 -10 6 0 3 5 -5 10 -8 5 -19 10 -25 10 -5 0
-3 -5 5 -10z"/>
<path d="M841 133 c-1 -6 -4 -20 -7 -30 -5 -17 -5 -17 6 0 6 10 9 23 6 30 -3
9 -5 9 -5 0z"/>
<path d="M764 79 c-3 -5 2 -6 11 -3 11 5 14 2 9 -12 -6 -18 -6 -18 8 0 10 13
17 15 22 8 4 -7 2 -12 -5 -12 -7 0 -10 -3 -6 -6 10 -10 26 6 21 20 -6 15 -51
19 -60 5z"/>
</g>
</svg>
